<?xml version="1.0" encoding="utf-8" standalone="no"?>
<!DOCTYPE svg PUBLIC "-//W3C//DTD SVG 1.1//EN"
  "http://www.w3.org/Graphics/SVG/1.1/DTD/svg11.dtd">
<!-- Created with matplotlib (http://matplotlib.org/) -->
<svg height="345pt" version="1.1" viewBox="0 0 460 345" width="460pt" xmlns="http://www.w3.org/2000/svg" xmlns:xlink="http://www.w3.org/1999/xlink">
 <defs>
  <style type="text/css">
*{stroke-linecap:butt;stroke-linejoin:round;}
  </style>
 </defs>
 <g id="figure_1">
  <g id="patch_1">
   <path d="M 0 345.6 
L 460.8 345.6 
L 460.8 0 
L 0 0 
z
" style="fill:none;opacity:0;"/>
  </g>
  <g id="axes_1">
   <g id="patch_2">
    <path d="M 57.6 307.584 
L 414.72 307.584 
L 414.72 41.472 
L 57.6 41.472 
z
" style="fill:#ffffff;"/>
   </g>
   <g id="PathCollection_1">
    <defs>
     <path d="M 0 0.866025 
C 0.229673 0.866025 0.449969 0.774776 0.612372 0.612372 
C 0.774776 0.449969 0.866025 0.229673 0.866025 0 
C 0.866025 -0.229673 0.774776 -0.449969 0.612372 -0.612372 
C 0.449969 -0.774776 0.229673 -0.866025 0 -0.866025 
C -0.229673 -0.866025 -0.449969 -0.774776 -0.612372 -0.612372 
C -0.774776 -0.449969 -0.866025 -0.229673 -0.866025 0 
C -0.866025 0.229673 -0.774776 0.449969 -0.612372 0.612372 
C -0.449969 0.774776 -0.229673 0.866025 0 0.866025 
z
" id="m3b5bd945e4" style="stroke:#1f77b4;stroke-opacity:0.8;"/>
    </defs>
    <g clip-path="url(#pf41a14bb3f)">
     <use style="fill:#1f77b4;fill-opacity:0.8;stroke:#1f77b4;stroke-opacity:0.8;" x="70.578805" xlink:href="#m3b5bd945e4" y="133.021107"/>
     <use style="fill:#1f77b4;fill-opacity:0.8;stroke:#1f77b4;stroke-opacity:0.8;" x="149.905021" xlink:href="#m3b5bd945e4" y="191.132252"/>
     <use style="fill:#1f77b4;fill-opacity:0.8;stroke:#1f77b4;stroke-opacity:0.8;" x="181.471723" xlink:href="#m3b5bd945e4" y="165.570764"/>
     <use style="fill:#1f77b4;fill-opacity:0.8;stroke:#1f77b4;stroke-opacity:0.8;" x="189.489805" xlink:href="#m3b5bd945e4" y="169.577793"/>
     <use style="fill:#1f77b4;fill-opacity:0.8;stroke:#1f77b4;stroke-opacity:0.8;" x="188.584607" xlink:href="#m3b5bd945e4" y="162.736906"/>
     <use style="fill:#1f77b4;fill-opacity:0.8;stroke:#1f77b4;stroke-opacity:0.8;" x="194.844812" xlink:href="#m3b5bd945e4" y="164.684321"/>
     <use style="fill:#1f77b4;fill-opacity:0.8;stroke:#1f77b4;stroke-opacity:0.8;" x="195.041577" xlink:href="#m3b5bd945e4" y="159.674867"/>
     <use style="fill:#1f77b4;fill-opacity:0.8;stroke:#1f77b4;stroke-opacity:0.8;" x="199.464684" xlink:href="#m3b5bd945e4" y="160.908602"/>
     <use style="fill:#1f77b4;fill-opacity:0.8;stroke:#1f77b4;stroke-opacity:0.8;" x="199.732801" xlink:href="#m3b5bd945e4" y="157.427159"/>
     <use style="fill:#1f77b4;fill-opacity:0.8;stroke:#1f77b4;stroke-opacity:0.8;" x="202.780604" xlink:href="#m3b5bd945e4" y="158.263051"/>
     <use style="fill:#1f77b4;fill-opacity:0.8;stroke:#1f77b4;stroke-opacity:0.8;" x="202.974636" xlink:href="#m3b5bd945e4" y="155.887858"/>
     <use style="fill:#1f77b4;fill-opacity:0.8;stroke:#1f77b4;stroke-opacity:0.8;" x="205.050777" xlink:href="#m3b5bd945e4" y="156.44962"/>
     <use style="fill:#1f77b4;fill-opacity:0.8;stroke:#1f77b4;stroke-opacity:0.8;" x="205.191975" xlink:href="#m3b5bd945e4" y="154.825216"/>
     <use style="fill:#1f77b4;fill-opacity:0.8;stroke:#1f77b4;stroke-opacity:0.8;" x="206.610699" xlink:href="#m3b5bd945e4" y="155.211412"/>
     <use style="fill:#1f77b4;fill-opacity:0.8;stroke:#1f77b4;stroke-opacity:0.8;" x="206.703655" xlink:href="#m3b5bd945e4" y="154.107279"/>
     <use style="fill:#1f77b4;fill-opacity:0.8;stroke:#1f77b4;stroke-opacity:0.8;" x="207.668258" xlink:href="#m3b5bd945e4" y="154.367681"/>
     <use style="fill:#1f77b4;fill-opacity:0.8;stroke:#1f77b4;stroke-opacity:0.8;" x="207.734455" xlink:href="#m3b5bd945e4" y="153.613197"/>
     <use style="fill:#1f77b4;fill-opacity:0.8;stroke:#1f77b4;stroke-opacity:0.8;" x="208.393322" xlink:href="#m3b5bd945e4" y="153.792358"/>
     <use style="fill:#1f77b4;fill-opacity:0.8;stroke:#1f77b4;stroke-opacity:0.8;" x="208.436705" xlink:href="#m3b5bd945e4" y="153.279625"/>
     <use style="fill:#1f77b4;fill-opacity:0.8;stroke:#1f77b4;stroke-opacity:0.8;" x="208.884631" xlink:href="#m3b5bd945e4" y="153.400449"/>
     <use style="fill:#1f77b4;fill-opacity:0.8;stroke:#1f77b4;stroke-opacity:0.8;" x="208.915486" xlink:href="#m3b5bd945e4" y="153.0501"/>
     <use style="fill:#1f77b4;fill-opacity:0.8;stroke:#1f77b4;stroke-opacity:0.8;" x="209.221432" xlink:href="#m3b5bd945e4" y="153.133233"/>
     <use style="fill:#1f77b4;fill-opacity:0.8;stroke:#1f77b4;stroke-opacity:0.8;" x="209.241651" xlink:href="#m3b5bd945e4" y="152.895144"/>
     <use style="fill:#1f77b4;fill-opacity:0.8;stroke:#1f77b4;stroke-opacity:0.8;" x="209.449645" xlink:href="#m3b5bd945e4" y="152.951209"/>
     <use style="fill:#1f77b4;fill-opacity:0.8;stroke:#1f77b4;stroke-opacity:0.8;" x="209.464022" xlink:href="#m3b5bd945e4" y="152.788524"/>
     <use style="fill:#1f77b4;fill-opacity:0.8;stroke:#1f77b4;stroke-opacity:0.8;" x="209.606087" xlink:href="#m3b5bd945e4" y="152.827099"/>
     <use style="fill:#1f77b4;fill-opacity:0.8;stroke:#1f77b4;stroke-opacity:0.8;" x="209.61551" xlink:href="#m3b5bd945e4" y="152.716543"/>
     <use style="fill:#1f77b4;fill-opacity:0.8;stroke:#1f77b4;stroke-opacity:0.8;" x="209.712091" xlink:href="#m3b5bd945e4" y="152.742558"/>
     <use style="fill:#1f77b4;fill-opacity:0.8;stroke:#1f77b4;stroke-opacity:0.8;" x="209.718791" xlink:href="#m3b5bd945e4" y="152.667015"/>
     <use style="fill:#1f77b4;fill-opacity:0.8;stroke:#1f77b4;stroke-opacity:0.8;" x="209.784759" xlink:href="#m3b5bd945e4" y="152.684915"/>
     <use style="fill:#1f77b4;fill-opacity:0.8;stroke:#1f77b4;stroke-opacity:0.8;" x="209.78915" xlink:href="#m3b5bd945e4" y="152.633578"/>
     <use style="fill:#1f77b4;fill-opacity:0.8;stroke:#1f77b4;stroke-opacity:0.8;" x="209.834195" xlink:href="#m3b5bd945e4" y="152.645703"/>
     <use style="fill:#1f77b4;fill-opacity:0.8;stroke:#1f77b4;stroke-opacity:0.8;" x="209.83702" xlink:href="#m3b5bd945e4" y="152.610749"/>
     <use style="fill:#1f77b4;fill-opacity:0.8;stroke:#1f77b4;stroke-opacity:0.8;" x="209.867702" xlink:href="#m3b5bd945e4" y="152.618969"/>
     <use style="fill:#1f77b4;fill-opacity:0.8;stroke:#1f77b4;stroke-opacity:0.8;" x="209.869673" xlink:href="#m3b5bd945e4" y="152.595161"/>
     <use style="fill:#1f77b4;fill-opacity:0.8;stroke:#1f77b4;stroke-opacity:0.8;" x="209.890572" xlink:href="#m3b5bd945e4" y="152.600734"/>
     <use style="fill:#1f77b4;fill-opacity:0.8;stroke:#1f77b4;stroke-opacity:0.8;" x="209.891953" xlink:href="#m3b5bd945e4" y="152.584435"/>
     <use style="fill:#1f77b4;fill-opacity:0.8;stroke:#1f77b4;stroke-opacity:0.8;" x="209.906192" xlink:href="#m3b5bd945e4" y="152.588275"/>
     <use style="fill:#1f77b4;fill-opacity:0.8;stroke:#1f77b4;stroke-opacity:0.8;" x="209.907175" xlink:href="#m3b5bd945e4" y="152.577137"/>
     <use style="fill:#1f77b4;fill-opacity:0.8;stroke:#1f77b4;stroke-opacity:0.8;" x="209.9169" xlink:href="#m3b5bd945e4" y="152.579779"/>
     <use style="fill:#1f77b4;fill-opacity:0.8;stroke:#1f77b4;stroke-opacity:0.8;" x="209.917544" xlink:href="#m3b5bd945e4" y="152.57221"/>
     <use style="fill:#1f77b4;fill-opacity:0.8;stroke:#1f77b4;stroke-opacity:0.8;" x="209.924156" xlink:href="#m3b5bd945e4" y="152.573992"/>
     <use style="fill:#1f77b4;fill-opacity:0.8;stroke:#1f77b4;stroke-opacity:0.8;" x="209.924614" xlink:href="#m3b5bd945e4" y="152.568821"/>
     <use style="fill:#1f77b4;fill-opacity:0.8;stroke:#1f77b4;stroke-opacity:0.8;" x="209.92913" xlink:href="#m3b5bd945e4" y="152.570047"/>
     <use style="fill:#1f77b4;fill-opacity:0.8;stroke:#1f77b4;stroke-opacity:0.8;" x="209.92943" xlink:href="#m3b5bd945e4" y="152.566532"/>
     <use style="fill:#1f77b4;fill-opacity:0.8;stroke:#1f77b4;stroke-opacity:0.8;" x="209.932514" xlink:href="#m3b5bd945e4" y="152.567362"/>
     <use style="fill:#1f77b4;fill-opacity:0.8;stroke:#1f77b4;stroke-opacity:0.8;" x="209.932707" xlink:href="#m3b5bd945e4" y="152.564969"/>
     <use style="fill:#1f77b4;fill-opacity:0.8;stroke:#1f77b4;stroke-opacity:0.8;" x="209.934807" xlink:href="#m3b5bd945e4" y="152.565532"/>
     <use style="fill:#1f77b4;fill-opacity:0.8;stroke:#1f77b4;stroke-opacity:0.8;" x="209.934942" xlink:href="#m3b5bd945e4" y="152.563903"/>
     <use style="fill:#1f77b4;fill-opacity:0.8;stroke:#1f77b4;stroke-opacity:0.8;" x="209.936372" xlink:href="#m3b5bd945e4" y="152.564284"/>
     <use style="fill:#1f77b4;fill-opacity:0.8;stroke:#1f77b4;stroke-opacity:0.8;" x="209.936467" xlink:href="#m3b5bd945e4" y="152.563168"/>
     <use style="fill:#1f77b4;fill-opacity:0.8;stroke:#1f77b4;stroke-opacity:0.8;" x="209.937442" xlink:href="#m3b5bd945e4" y="152.563431"/>
     <use style="fill:#1f77b4;fill-opacity:0.8;stroke:#1f77b4;stroke-opacity:0.8;" x="209.937509" xlink:href="#m3b5bd945e4" y="152.562669"/>
     <use style="fill:#1f77b4;fill-opacity:0.8;stroke:#1f77b4;stroke-opacity:0.8;" x="209.938175" xlink:href="#m3b5bd945e4" y="152.56285"/>
     <use style="fill:#1f77b4;fill-opacity:0.8;stroke:#1f77b4;stroke-opacity:0.8;" x="209.938219" xlink:href="#m3b5bd945e4" y="152.562332"/>
     <use style="fill:#1f77b4;fill-opacity:0.8;stroke:#1f77b4;stroke-opacity:0.8;" x="209.938671" xlink:href="#m3b5bd945e4" y="152.562454"/>
     <use style="fill:#1f77b4;fill-opacity:0.8;stroke:#1f77b4;stroke-opacity:0.8;" x="209.938702" xlink:href="#m3b5bd945e4" y="152.5621"/>
     <use style="fill:#1f77b4;fill-opacity:0.8;stroke:#1f77b4;stroke-opacity:0.8;" x="209.939012" xlink:href="#m3b5bd945e4" y="152.562184"/>
     <use style="fill:#1f77b4;fill-opacity:0.8;stroke:#1f77b4;stroke-opacity:0.8;" x="209.939032" xlink:href="#m3b5bd945e4" y="152.561943"/>
     <use style="fill:#1f77b4;fill-opacity:0.8;stroke:#1f77b4;stroke-opacity:0.8;" x="209.939242" xlink:href="#m3b5bd945e4" y="152.562"/>
     <use style="fill:#1f77b4;fill-opacity:0.8;stroke:#1f77b4;stroke-opacity:0.8;" x="209.939257" xlink:href="#m3b5bd945e4" y="152.561835"/>
     <use style="fill:#1f77b4;fill-opacity:0.8;stroke:#1f77b4;stroke-opacity:0.8;" x="209.9394" xlink:href="#m3b5bd945e4" y="152.561874"/>
     <use style="fill:#1f77b4;fill-opacity:0.8;stroke:#1f77b4;stroke-opacity:0.8;" x="209.93941" xlink:href="#m3b5bd945e4" y="152.561763"/>
     <use style="fill:#1f77b4;fill-opacity:0.8;stroke:#1f77b4;stroke-opacity:0.8;" x="209.939508" xlink:href="#m3b5bd945e4" y="152.561789"/>
     <use style="fill:#1f77b4;fill-opacity:0.8;stroke:#1f77b4;stroke-opacity:0.8;" x="209.939514" xlink:href="#m3b5bd945e4" y="152.561713"/>
     <use style="fill:#1f77b4;fill-opacity:0.8;stroke:#1f77b4;stroke-opacity:0.8;" x="209.939581" xlink:href="#m3b5bd945e4" y="152.561731"/>
     <use style="fill:#1f77b4;fill-opacity:0.8;stroke:#1f77b4;stroke-opacity:0.8;" x="209.939585" xlink:href="#m3b5bd945e4" y="152.561679"/>
     <use style="fill:#1f77b4;fill-opacity:0.8;stroke:#1f77b4;stroke-opacity:0.8;" x="209.939631" xlink:href="#m3b5bd945e4" y="152.561691"/>
     <use style="fill:#1f77b4;fill-opacity:0.8;stroke:#1f77b4;stroke-opacity:0.8;" x="209.939634" xlink:href="#m3b5bd945e4" y="152.561655"/>
     <use style="fill:#1f77b4;fill-opacity:0.8;stroke:#1f77b4;stroke-opacity:0.8;" x="209.939665" xlink:href="#m3b5bd945e4" y="152.561664"/>
     <use style="fill:#1f77b4;fill-opacity:0.8;stroke:#1f77b4;stroke-opacity:0.8;" x="209.939667" xlink:href="#m3b5bd945e4" y="152.561639"/>
     <use style="fill:#1f77b4;fill-opacity:0.8;stroke:#1f77b4;stroke-opacity:0.8;" x="209.939688" xlink:href="#m3b5bd945e4" y="152.561645"/>
     <use style="fill:#1f77b4;fill-opacity:0.8;stroke:#1f77b4;stroke-opacity:0.8;" x="209.93969" xlink:href="#m3b5bd945e4" y="152.561629"/>
     <use style="fill:#1f77b4;fill-opacity:0.8;stroke:#1f77b4;stroke-opacity:0.8;" x="209.939704" xlink:href="#m3b5bd945e4" y="152.561633"/>
     <use style="fill:#1f77b4;fill-opacity:0.8;stroke:#1f77b4;stroke-opacity:0.8;" x="209.939705" xlink:href="#m3b5bd945e4" y="152.561621"/>
     <use style="fill:#1f77b4;fill-opacity:0.8;stroke:#1f77b4;stroke-opacity:0.8;" x="209.939715" xlink:href="#m3b5bd945e4" y="152.561624"/>
     <use style="fill:#1f77b4;fill-opacity:0.8;stroke:#1f77b4;stroke-opacity:0.8;" x="209.939716" xlink:href="#m3b5bd945e4" y="152.561617"/>
    </g>
   </g>
   <g id="matplotlib.axis_1">
    <g id="xtick_1">
     <g id="line2d_1">
      <defs>
       <path d="M 0 0 
L 0 3.5 
" id="m5d8446d6b4" style="stroke:#000000;stroke-width:0.8;"/>
      </defs>
      <g>
       <use style="stroke:#000000;stroke-width:0.8;" x="57.6" xlink:href="#m5d8446d6b4" y="307.584"/>
      </g>
     </g>
     <g id="text_1">
      <!-- −2.0 -->
      <defs>
       <path d="M 10.59375 35.5 
L 73.1875 35.5 
L 73.1875 27.203125 
L 10.59375 27.203125 
z
" id="DejaVuSans-2212"/>
       <path d="M 19.1875 8.296875 
L 53.609375 8.296875 
L 53.609375 0 
L 7.328125 0 
L 7.328125 8.296875 
Q 12.9375 14.109375 22.625 23.890625 
Q 32.328125 33.6875 34.8125 36.53125 
Q 39.546875 41.84375 41.421875 45.53125 
Q 43.3125 49.21875 43.3125 52.78125 
Q 43.3125 58.59375 39.234375 62.25 
Q 35.15625 65.921875 28.609375 65.921875 
Q 23.96875 65.921875 18.8125 64.3125 
Q 13.671875 62.703125 7.8125 59.421875 
L 7.8125 69.390625 
Q 13.765625 71.78125 18.9375 73 
Q 24.125 74.21875 28.421875 74.21875 
Q 39.75 74.21875 46.484375 68.546875 
Q 53.21875 62.890625 53.21875 53.421875 
Q 53.21875 48.921875 51.53125 44.890625 
Q 49.859375 40.875 45.40625 35.40625 
Q 44.1875 33.984375 37.640625 27.21875 
Q 31.109375 20.453125 19.1875 8.296875 
z
" id="DejaVuSans-32"/>
       <path d="M 10.6875 12.40625 
L 21 12.40625 
L 21 0 
L 10.6875 0 
z
" id="DejaVuSans-2e"/>
       <path d="M 31.78125 66.40625 
Q 24.171875 66.40625 20.328125 58.90625 
Q 16.5 51.421875 16.5 36.375 
Q 16.5 21.390625 20.328125 13.890625 
Q 24.171875 6.390625 31.78125 6.390625 
Q 39.453125 6.390625 43.28125 13.890625 
Q 47.125 21.390625 47.125 36.375 
Q 47.125 51.421875 43.28125 58.90625 
Q 39.453125 66.40625 31.78125 66.40625 
z
M 31.78125 74.21875 
Q 44.046875 74.21875 50.515625 64.515625 
Q 56.984375 54.828125 56.984375 36.375 
Q 56.984375 17.96875 50.515625 8.265625 
Q 44.046875 -1.421875 31.78125 -1.421875 
Q 19.53125 -1.421875 13.0625 8.265625 
Q 6.59375 17.96875 6.59375 36.375 
Q 6.59375 54.828125 13.0625 64.515625 
Q 19.53125 74.21875 31.78125 74.21875 
z
" id="DejaVuSans-30"/>
      </defs>
      <g transform="translate(45.458594 322.182437)scale(0.1 -0.1)">
       <use xlink:href="#DejaVuSans-2212"/>
       <use x="83.789062" xlink:href="#DejaVuSans-32"/>
       <use x="147.412109" xlink:href="#DejaVuSans-2e"/>
       <use x="179.199219" xlink:href="#DejaVuSans-30"/>
      </g>
     </g>
    </g>
    <g id="xtick_2">
     <g id="line2d_2">
      <g>
       <use style="stroke:#000000;stroke-width:0.8;" x="102.24" xlink:href="#m5d8446d6b4" y="307.584"/>
      </g>
     </g>
     <g id="text_2">
      <!-- −1.5 -->
      <defs>
       <path d="M 12.40625 8.296875 
L 28.515625 8.296875 
L 28.515625 63.921875 
L 10.984375 60.40625 
L 10.984375 69.390625 
L 28.421875 72.90625 
L 38.28125 72.90625 
L 38.28125 8.296875 
L 54.390625 8.296875 
L 54.390625 0 
L 12.40625 0 
z
" id="DejaVuSans-31"/>
       <path d="M 10.796875 72.90625 
L 49.515625 72.90625 
L 49.515625 64.59375 
L 19.828125 64.59375 
L 19.828125 46.734375 
Q 21.96875 47.46875 24.109375 47.828125 
Q 26.265625 48.1875 28.421875 48.1875 
Q 40.625 48.1875 47.75 41.5 
Q 54.890625 34.8125 54.890625 23.390625 
Q 54.890625 11.625 47.5625 5.09375 
Q 40.234375 -1.421875 26.90625 -1.421875 
Q 22.3125 -1.421875 17.546875 -0.640625 
Q 12.796875 0.140625 7.71875 1.703125 
L 7.71875 11.625 
Q 12.109375 9.234375 16.796875 8.0625 
Q 21.484375 6.890625 26.703125 6.890625 
Q 35.15625 6.890625 40.078125 11.328125 
Q 45.015625 15.765625 45.015625 23.390625 
Q 45.015625 31 40.078125 35.4375 
Q 35.15625 39.890625 26.703125 39.890625 
Q 22.75 39.890625 18.8125 39.015625 
Q 14.890625 38.140625 10.796875 36.28125 
z
" id="DejaVuSans-35"/>
      </defs>
      <g transform="translate(90.098594 322.182437)scale(0.1 -0.1)">
       <use xlink:href="#DejaVuSans-2212"/>
       <use x="83.789062" xlink:href="#DejaVuSans-31"/>
       <use x="147.412109" xlink:href="#DejaVuSans-2e"/>
       <use x="179.199219" xlink:href="#DejaVuSans-35"/>
      </g>
     </g>
    </g>
    <g id="xtick_3">
     <g id="line2d_3">
      <g>
       <use style="stroke:#000000;stroke-width:0.8;" x="146.88" xlink:href="#m5d8446d6b4" y="307.584"/>
      </g>
     </g>
     <g id="text_3">
      <!-- −1.0 -->
      <g transform="translate(134.738594 322.182437)scale(0.1 -0.1)">
       <use xlink:href="#DejaVuSans-2212"/>
       <use x="83.789062" xlink:href="#DejaVuSans-31"/>
       <use x="147.412109" xlink:href="#DejaVuSans-2e"/>
       <use x="179.199219" xlink:href="#DejaVuSans-30"/>
      </g>
     </g>
    </g>
    <g id="xtick_4">
     <g id="line2d_4">
      <g>
       <use style="stroke:#000000;stroke-width:0.8;" x="191.52" xlink:href="#m5d8446d6b4" y="307.584"/>
      </g>
     </g>
     <g id="text_4">
      <!-- −0.5 -->
      <g transform="translate(179.378594 322.182437)scale(0.1 -0.1)">
       <use xlink:href="#DejaVuSans-2212"/>
       <use x="83.789062" xlink:href="#DejaVuSans-30"/>
       <use x="147.412109" xlink:href="#DejaVuSans-2e"/>
       <use x="179.199219" xlink:href="#DejaVuSans-35"/>
      </g>
     </g>
    </g>
    <g id="xtick_5">
     <g id="line2d_5">
      <g>
       <use style="stroke:#000000;stroke-width:0.8;" x="236.16" xlink:href="#m5d8446d6b4" y="307.584"/>
      </g>
     </g>
     <g id="text_5">
      <!-- 0.0 -->
      <g transform="translate(228.208438 322.182437)scale(0.1 -0.1)">
       <use xlink:href="#DejaVuSans-30"/>
       <use x="63.623047" xlink:href="#DejaVuSans-2e"/>
       <use x="95.410156" xlink:href="#DejaVuSans-30"/>
      </g>
     </g>
    </g>
    <g id="xtick_6">
     <g id="line2d_6">
      <g>
       <use style="stroke:#000000;stroke-width:0.8;" x="280.8" xlink:href="#m5d8446d6b4" y="307.584"/>
      </g>
     </g>
     <g id="text_6">
      <!-- 0.5 -->
      <g transform="translate(272.848437 322.182437)scale(0.1 -0.1)">
       <use xlink:href="#DejaVuSans-30"/>
       <use x="63.623047" xlink:href="#DejaVuSans-2e"/>
       <use x="95.410156" xlink:href="#DejaVuSans-35"/>
      </g>
     </g>
    </g>
    <g id="xtick_7">
     <g id="line2d_7">
      <g>
       <use style="stroke:#000000;stroke-width:0.8;" x="325.44" xlink:href="#m5d8446d6b4" y="307.584"/>
      </g>
     </g>
     <g id="text_7">
      <!-- 1.0 -->
      <g transform="translate(317.488437 322.182437)scale(0.1 -0.1)">
       <use xlink:href="#DejaVuSans-31"/>
       <use x="63.623047" xlink:href="#DejaVuSans-2e"/>
       <use x="95.410156" xlink:href="#DejaVuSans-30"/>
      </g>
     </g>
    </g>
    <g id="xtick_8">
     <g id="line2d_8">
      <g>
       <use style="stroke:#000000;stroke-width:0.8;" x="370.08" xlink:href="#m5d8446d6b4" y="307.584"/>
      </g>
     </g>
     <g id="text_8">
      <!-- 1.5 -->
      <g transform="translate(362.128438 322.182437)scale(0.1 -0.1)">
       <use xlink:href="#DejaVuSans-31"/>
       <use x="63.623047" xlink:href="#DejaVuSans-2e"/>
       <use x="95.410156" xlink:href="#DejaVuSans-35"/>
      </g>
     </g>
    </g>
    <g id="xtick_9">
     <g id="line2d_9">
      <g>
       <use style="stroke:#000000;stroke-width:0.8;" x="414.72" xlink:href="#m5d8446d6b4" y="307.584"/>
      </g>
     </g>
     <g id="text_9">
      <!-- 2.0 -->
      <g transform="translate(406.768438 322.182437)scale(0.1 -0.1)">
       <use xlink:href="#DejaVuSans-32"/>
       <use x="63.623047" xlink:href="#DejaVuSans-2e"/>
       <use x="95.410156" xlink:href="#DejaVuSans-30"/>
      </g>
     </g>
    </g>
    <g id="text_10">
     <!-- $\theta_1$ -->
     <defs>
      <path d="M 45.515625 34.671875 
L 14.453125 34.671875 
Q 12.359375 20.0625 14.5 13.875 
Q 17.1875 6.25 24.46875 6.25 
Q 31.78125 6.25 37.359375 13.921875 
Q 42.234375 20.65625 45.515625 34.671875 
z
M 47.015625 42.96875 
Q 48.34375 56.84375 46.625 61.71875 
Q 43.953125 69.4375 36.765625 69.4375 
Q 29.296875 69.4375 23.828125 61.8125 
Q 19.53125 55.671875 16.15625 42.96875 
z
M 38.1875 76.765625 
Q 49.90625 76.765625 54.59375 66.40625 
Q 59.28125 56.109375 55.71875 37.84375 
Q 52.203125 19.625 43.453125 9.28125 
Q 34.765625 -1.125 23.046875 -1.125 
Q 11.28125 -1.125 6.640625 9.28125 
Q 2 19.625 5.515625 37.84375 
Q 9.078125 56.109375 17.71875 66.40625 
Q 26.421875 76.765625 38.1875 76.765625 
z
" id="DejaVuSans-Oblique-3b8"/>
     </defs>
     <g transform="translate(230.71 335.860562)scale(0.1 -0.1)">
      <use transform="translate(0 0.234375)" xlink:href="#DejaVuSans-Oblique-3b8"/>
      <use transform="translate(61.181641 -16.171875)scale(0.7)" xlink:href="#DejaVuSans-31"/>
     </g>
    </g>
   </g>
   <g id="matplotlib.axis_2">
    <g id="ytick_1">
     <g id="line2d_10">
      <defs>
       <path d="M 0 0 
L -3.5 0 
" id="mdc946c7977" style="stroke:#000000;stroke-width:0.8;"/>
      </defs>
      <g>
       <use style="stroke:#000000;stroke-width:0.8;" x="57.6" xlink:href="#mdc946c7977" y="307.584"/>
      </g>
     </g>
     <g id="text_11">
      <!-- −2.0 -->
      <g transform="translate(26.317187 311.383219)scale(0.1 -0.1)">
       <use xlink:href="#DejaVuSans-2212"/>
       <use x="83.789062" xlink:href="#DejaVuSans-32"/>
       <use x="147.412109" xlink:href="#DejaVuSans-2e"/>
       <use x="179.199219" xlink:href="#DejaVuSans-30"/>
      </g>
     </g>
    </g>
    <g id="ytick_2">
     <g id="line2d_11">
      <g>
       <use style="stroke:#000000;stroke-width:0.8;" x="57.6" xlink:href="#mdc946c7977" y="274.32"/>
      </g>
     </g>
     <g id="text_12">
      <!-- −1.5 -->
      <g transform="translate(26.317187 278.119219)scale(0.1 -0.1)">
       <use xlink:href="#DejaVuSans-2212"/>
       <use x="83.789062" xlink:href="#DejaVuSans-31"/>
       <use x="147.412109" xlink:href="#DejaVuSans-2e"/>
       <use x="179.199219" xlink:href="#DejaVuSans-35"/>
      </g>
     </g>
    </g>
    <g id="ytick_3">
     <g id="line2d_12">
      <g>
       <use style="stroke:#000000;stroke-width:0.8;" x="57.6" xlink:href="#mdc946c7977" y="241.056"/>
      </g>
     </g>
     <g id="text_13">
      <!-- −1.0 -->
      <g transform="translate(26.317187 244.855219)scale(0.1 -0.1)">
       <use xlink:href="#DejaVuSans-2212"/>
       <use x="83.789062" xlink:href="#DejaVuSans-31"/>
       <use x="147.412109" xlink:href="#DejaVuSans-2e"/>
       <use x="179.199219" xlink:href="#DejaVuSans-30"/>
      </g>
     </g>
    </g>
    <g id="ytick_4">
     <g id="line2d_13">
      <g>
       <use style="stroke:#000000;stroke-width:0.8;" x="57.6" xlink:href="#mdc946c7977" y="207.792"/>
      </g>
     </g>
     <g id="text_14">
      <!-- −0.5 -->
      <g transform="translate(26.317187 211.591219)scale(0.1 -0.1)">
       <use xlink:href="#DejaVuSans-2212"/>
       <use x="83.789062" xlink:href="#DejaVuSans-30"/>
       <use x="147.412109" xlink:href="#DejaVuSans-2e"/>
       <use x="179.199219" xlink:href="#DejaVuSans-35"/>
      </g>
     </g>
    </g>
    <g id="ytick_5">
     <g id="line2d_14">
      <g>
       <use style="stroke:#000000;stroke-width:0.8;" x="57.6" xlink:href="#mdc946c7977" y="174.528"/>
      </g>
     </g>
     <g id="text_15">
      <!-- 0.0 -->
      <g transform="translate(34.696875 178.327219)scale(0.1 -0.1)">
       <use xlink:href="#DejaVuSans-30"/>
       <use x="63.623047" xlink:href="#DejaVuSans-2e"/>
       <use x="95.410156" xlink:href="#DejaVuSans-30"/>
      </g>
     </g>
    </g>
    <g id="ytick_6">
     <g id="line2d_15">
      <g>
       <use style="stroke:#000000;stroke-width:0.8;" x="57.6" xlink:href="#mdc946c7977" y="141.264"/>
      </g>
     </g>
     <g id="text_16">
      <!-- 0.5 -->
      <g transform="translate(34.696875 145.063219)scale(0.1 -0.1)">
       <use xlink:href="#DejaVuSans-30"/>
       <use x="63.623047" xlink:href="#DejaVuSans-2e"/>
       <use x="95.410156" xlink:href="#DejaVuSans-35"/>
      </g>
     </g>
    </g>
    <g id="ytick_7">
     <g id="line2d_16">
      <g>
       <use style="stroke:#000000;stroke-width:0.8;" x="57.6" xlink:href="#mdc946c7977" y="108"/>
      </g>
     </g>
     <g id="text_17">
      <!-- 1.0 -->
      <g transform="translate(34.696875 111.799219)scale(0.1 -0.1)">
       <use xlink:href="#DejaVuSans-31"/>
       <use x="63.623047" xlink:href="#DejaVuSans-2e"/>
       <use x="95.410156" xlink:href="#DejaVuSans-30"/>
      </g>
     </g>
    </g>
    <g id="ytick_8">
     <g id="line2d_17">
      <g>
       <use style="stroke:#000000;stroke-width:0.8;" x="57.6" xlink:href="#mdc946c7977" y="74.736"/>
      </g>
     </g>
     <g id="text_18">
      <!-- 1.5 -->
      <g transform="translate(34.696875 78.535219)scale(0.1 -0.1)">
       <use xlink:href="#DejaVuSans-31"/>
       <use x="63.623047" xlink:href="#DejaVuSans-2e"/>
       <use x="95.410156" xlink:href="#DejaVuSans-35"/>
      </g>
     </g>
    </g>
    <g id="ytick_9">
     <g id="line2d_18">
      <g>
       <use style="stroke:#000000;stroke-width:0.8;" x="57.6" xlink:href="#mdc946c7977" y="41.472"/>
      </g>
     </g>
     <g id="text_19">
      <!-- 2.0 -->
      <g transform="translate(34.696875 45.271219)scale(0.1 -0.1)">
       <use xlink:href="#DejaVuSans-32"/>
       <use x="63.623047" xlink:href="#DejaVuSans-2e"/>
       <use x="95.410156" xlink:href="#DejaVuSans-30"/>
      </g>
     </g>
    </g>
    <g id="text_20">
     <!-- $\theta_2$ -->
     <g transform="translate(20.2375 179.978)rotate(-90)scale(0.1 -0.1)">
      <use transform="translate(0 0.234375)" xlink:href="#DejaVuSans-Oblique-3b8"/>
      <use transform="translate(61.181641 -16.171875)scale(0.7)" xlink:href="#DejaVuSans-32"/>
     </g>
    </g>
   </g>
   <g id="LineCollection_1">
    <path clip-path="url(#pf41a14bb3f)" d="M 57.6 143.505941 
L 60.622341 140.928 
L 61.207273 140.436509 
L 63.833633 138.24 
L 64.814545 137.431674 
L 67.106297 135.552 
L 68.421818 134.488631 
L 70.441205 132.864 
L 72.029091 131.604737 
L 73.839246 130.176 
L 75.636364 128.777497 
L 77.301325 127.488 
L 79.243636 126.004555 
L 80.828364 124.8 
L 82.850909 123.283683 
L 84.421304 122.112 
L 86.458182 120.612773 
L 88.081102 119.424 
L 90.065455 117.98983 
L 91.808737 116.736 
L 93.672727 115.412964 
L 95.605205 114.048 
L 97.28 112.880383 
L 99.471521 111.36 
L 100.887273 110.390385 
L 103.408722 108.672 
L 104.494545 107.941357 
L 107.417865 105.984 
L 108.101818 105.531764 
L 111.500027 103.296 
L 111.709091 103.160147 
L 115.316364 100.831468 
L 115.664649 100.608 
L 118.923636 98.54284 
L 119.911608 97.92 
L 122.530909 96.288922 
L 124.237007 95.232 
L 126.138182 94.068455 
L 128.642073 92.544 
L 129.745455 91.880241 
L 133.128062 89.856 
L 133.352727 89.72314 
L 136.96 87.608027 
L 137.715275 87.168 
L 140.567273 85.526087 
L 142.394213 84.48 
L 144.174545 83.472529 
L 147.160513 81.792 
L 147.781818 81.446368 
L 151.389091 79.456055 
L 152.032515 79.104 
L 154.996364 77.501136 
L 157.014288 76.416 
L 158.603636 75.57114 
L 162.090768 73.728 
L 162.210909 73.665219 
L 165.818182 71.802518 
L 167.304359 71.04 
L 169.425455 69.964118 
L 172.622637 68.352 
L 173.032727 68.147549 
L 176.64 66.370431 
L 178.085308 65.664 
L 180.247273 64.619231 
L 183.668717 62.976 
L 183.854545 62.887749 
L 187.461818 61.198816 
L 189.421216 60.288 
L 191.069091 59.530588 
L 194.676364 57.887531 
L 195.316319 57.6 
L 198.283636 56.281801 
L 201.387827 54.912 
L 201.890909 54.692475 
L 205.498182 53.14261 
L 207.65577 52.224 
L 209.105455 51.613685 
L 212.712727 50.114255 
L 214.12268 49.536 
L 216.32 48.644938 
L 219.927273 47.197995 
L 220.81475 46.848 
L 223.534545 45.787471 
L 227.141818 44.39511 
L 227.762982 44.16 
L 230.749091 43.042537 
L 234.356364 41.706895 
L 235.004341 41.472 
" style="fill:none;stroke:#440154;stroke-width:1.5;"/>
    <path clip-path="url(#pf41a14bb3f)" d="M 414.72 96.652476 
L 412.603292 100.608 
L 409.44756 105.984 
L 405.992546 111.36 
L 402.250381 116.736 
L 398.232551 122.112 
L 393.076364 128.53811 
L 389.411568 132.864 
L 384.603314 138.24 
L 378.647273 144.550194 
L 374.258979 148.992 
L 367.825455 155.206319 
L 360.610909 161.834708 
L 356.904423 165.12 
L 349.789091 171.189369 
L 342.574545 177.08867 
L 333.824273 183.936 
L 324.538182 190.859055 
L 315.39355 197.376 
L 306.501818 203.443442 
L 299.287273 208.194035 
L 288.465455 215.020092 
L 281.250909 219.402438 
L 270.429091 225.715488 
L 259.607273 231.746192 
L 248.785455 237.501115 
L 241.570909 241.181393 
L 230.749091 246.491937 
L 219.927273 251.547726 
L 208.72966 256.512 
L 195.836685 261.888 
L 187.461818 265.189437 
L 176.64 269.229444 
L 165.818182 273.013872 
L 154.996364 276.525447 
L 144.174545 279.767971 
L 136.96 281.770669 
L 126.138182 284.527528 
L 115.316364 286.972227 
L 104.494545 289.085149 
L 97.28 290.28465 
L 89.022987 291.456 
L 82.850909 292.168104 
L 75.636364 292.814362 
L 68.421818 293.246283 
L 61.207273 293.437834 
L 57.6 293.43416 
L 57.6 293.43416 
" style="fill:none;stroke:#440154;stroke-width:1.5;"/>
   </g>
   <g id="LineCollection_2">
    <path clip-path="url(#pf41a14bb3f)" d="M 414.72 174.122065 
L 412.658573 175.872 
L 411.112727 177.170416 
L 409.45285 178.56 
L 407.505455 180.173263 
L 406.203803 181.248 
L 403.898182 183.132017 
L 402.910998 183.936 
L 400.290909 186.048032 
L 399.573996 186.624 
L 396.683636 188.922606 
L 396.19235 189.312 
L 393.076364 191.756983 
L 392.765608 192 
L 389.469091 194.552362 
L 389.293313 194.688 
L 385.861818 197.309891 
L 385.775001 197.376 
L 382.254545 200.030674 
L 382.210201 200.064 
L 378.647273 202.715776 
L 378.598435 202.752 
L 375.04 205.366216 
L 374.939222 205.44 
L 371.432727 207.982978 
L 371.232069 208.128 
L 367.825455 210.567009 
L 367.476481 210.816 
L 364.218182 213.119218 
L 363.671954 213.504 
L 360.610909 215.640484 
L 359.817977 216.192 
L 357.003636 218.131653 
L 355.914031 218.88 
L 353.396364 220.593539 
L 351.959593 221.568 
L 349.789091 223.026929 
L 347.954128 224.256 
L 346.181818 225.43258 
L 343.897097 226.944 
L 342.574545 227.811223 
L 339.787953 229.632 
L 338.967273 230.163565 
L 335.626139 232.32 
L 335.36 232.490288 
L 331.752727 234.787647 
L 331.405178 235.008 
L 328.145455 237.056825 
L 327.124811 237.696 
L 324.538182 239.301958 
L 322.789027 240.384 
L 320.930909 241.523661 
L 318.397217 243.072 
L 317.323636 243.722527 
L 313.948762 245.76 
L 313.716364 245.899129 
L 310.109091 248.046242 
L 309.43108 248.448 
L 306.501818 250.169174 
L 304.850167 251.136 
L 302.894545 252.271231 
L 300.209507 253.824 
L 299.287273 254.352929 
L 295.68 256.412876 
L 295.505247 256.512 
L 292.072727 258.442891 
L 290.72159 259.2 
L 288.465455 260.453843 
L 285.87479 261.888 
L 284.858182 262.446197 
L 281.250909 264.417415 
L 280.958636 264.576 
L 277.643636 266.360002 
L 275.957106 267.264 
L 274.036364 268.285199 
L 270.888702 269.952 
L 270.429091 270.193425 
L 266.821818 272.074574 
L 265.731578 272.64 
L 263.214545 273.934879 
L 260.495338 275.328 
L 259.607273 275.779342 
L 256 277.600658 
L 255.171681 278.016 
L 252.392727 279.398277 
L 249.7565 280.704 
L 248.785455 281.181135 
L 245.178182 282.941288 
L 244.247754 283.392 
L 241.570909 284.678366 
L 238.641406 286.08 
L 237.963636 286.401718 
L 234.356364 288.099431 
L 232.926522 288.768 
L 230.749091 289.778056 
L 227.141818 291.443721 
L 227.114929 291.456 
L 223.534545 293.077993 
L 221.170524 294.144 
L 219.927273 294.700197 
L 216.32 296.300922 
L 215.113041 296.832 
L 212.712727 297.879818 
L 209.105455 299.446228 
L 208.933508 299.52 
L 205.498182 300.982204 
L 202.604086 302.208 
L 201.890909 302.50769 
L 198.283636 304.006743 
L 196.128338 304.896 
L 194.676364 305.490347 
L 191.069091 306.952815 
L 189.497313 307.584 
" style="fill:none;stroke:#414487;stroke-width:1.5;"/>
    <path clip-path="url(#pf41a14bb3f)" d="M 57.6 90.804815 
L 58.992232 89.856 
L 61.207273 88.359982 
L 62.978344 87.168 
L 64.814545 85.943175 
L 67.015797 84.48 
L 68.421818 83.553654 
L 71.105133 81.792 
L 72.029091 81.190702 
L 75.246906 79.104 
L 75.636364 78.85363 
L 79.243636 76.544342 
L 79.445097 76.416 
L 82.850909 74.265149 
L 83.70456 73.728 
L 86.458182 72.010243 
L 88.019187 71.04 
L 90.065455 69.779003 
L 92.389584 68.352 
L 93.672727 67.570828 
L 96.816366 65.664 
L 97.28 65.385136 
L 100.887273 63.226225 
L 101.307552 62.976 
L 104.494545 61.094508 
L 105.86581 60.288 
L 108.101818 58.983873 
L 110.48353 57.6 
L 111.709091 56.893795 
L 115.161392 54.912 
L 115.316364 54.823769 
L 118.923636 52.783942 
L 119.918169 52.224 
L 122.530909 50.765088 
L 124.74064 49.536 
L 126.138182 48.765013 
L 129.626683 46.848 
L 129.745455 46.783261 
L 133.352727 44.831984 
L 134.600431 44.16 
L 136.96 42.899513 
L 139.642974 41.472 
" style="fill:none;stroke:#414487;stroke-width:1.5;"/>
   </g>
   <g id="LineCollection_3">
    <path clip-path="url(#pf41a14bb3f)" d="M 414.72 215.696718 
L 414.045143 216.192 
L 411.112727 218.327535 
L 410.35199 218.88 
L 407.505455 220.93141 
L 406.619648 221.568 
L 403.898182 223.508955 
L 402.847788 224.256 
L 400.290909 226.060766 
L 399.036074 226.944 
L 396.683636 228.58742 
L 395.18417 229.632 
L 393.076364 231.089476 
L 391.291734 232.32 
L 389.469091 233.567479 
L 387.358421 235.008 
L 385.861818 236.021955 
L 383.38388 237.696 
L 382.254545 238.453418 
L 379.367759 240.384 
L 378.647273 240.862364 
L 375.309701 243.072 
L 375.04 243.249278 
L 371.432727 245.612178 
L 371.206237 245.76 
L 367.825455 247.950689 
L 367.055735 248.448 
L 364.218182 250.268274 
L 362.861553 251.136 
L 360.610909 252.565377 
L 358.623304 253.824 
L 357.003636 254.842431 
L 354.3406 256.512 
L 353.396364 257.099854 
L 350.013047 259.2 
L 349.789091 259.338055 
L 346.181818 261.552041 
L 345.632471 261.888 
L 342.574545 263.745128 
L 341.202314 264.576 
L 338.967273 265.919968 
L 336.72536 267.264 
L 335.36 268.076934 
L 332.201183 269.952 
L 331.752727 270.216393 
L 328.145455 272.333876 
L 327.621743 272.64 
L 324.538182 274.430148 
L 322.986822 275.328 
L 320.930909 276.509811 
L 318.302555 278.016 
L 317.323636 278.573202 
L 313.716364 280.619327 
L 313.566245 280.704 
L 310.109091 282.640839 
L 308.764051 283.392 
L 306.501818 284.646929 
L 303.910224 286.08 
L 302.894545 286.637905 
L 299.287273 288.611657 
L 298.999884 288.768 
L 295.68 290.562024 
L 294.020289 291.456 
L 292.072727 292.49808 
L 288.98659 294.144 
L 288.465455 294.420108 
L 284.858182 296.320593 
L 283.883005 296.832 
L 281.250909 298.203244 
L 278.714958 299.52 
L 277.643636 300.072627 
L 274.036364 301.924705 
L 273.481257 302.208 
L 270.429091 303.755433 
L 268.171739 304.896 
L 266.821818 305.573627 
L 263.214545 307.376396 
L 262.796312 307.584 
" style="fill:none;stroke:#2a788e;stroke-width:1.5;"/>
    <path clip-path="url(#pf41a14bb3f)" d="M 57.6 54.21732 
L 60.798896 52.224 
L 61.207273 51.971295 
L 64.814545 49.747651 
L 65.15929 49.536 
L 68.421818 47.54695 
L 69.57172 46.848 
L 72.029091 45.364644 
L 74.03077 44.16 
L 75.636364 43.200356 
L 78.536864 41.472 
" style="fill:none;stroke:#2a788e;stroke-width:1.5;"/>
   </g>
   <g id="LineCollection_4">
    <path clip-path="url(#pf41a14bb3f)" d="M 414.72 247.986084 
L 414.039584 248.448 
L 411.112727 250.422369 
L 410.052199 251.136 
L 407.505455 252.838912 
L 406.028571 253.824 
L 403.898182 255.236084 
L 401.96843 256.512 
L 400.290909 257.614246 
L 397.871503 259.2 
L 396.683636 259.973751 
L 393.737512 261.888 
L 393.076364 262.314943 
L 389.566179 264.576 
L 389.469091 264.638157 
L 385.861818 266.939121 
L 385.351088 267.264 
L 382.254545 269.221676 
L 381.09641 269.952 
L 378.647273 271.48704 
L 376.803028 272.64 
L 375.04 273.735524 
L 372.470645 275.328 
L 371.432727 275.967432 
L 368.098959 278.016 
L 367.825455 278.183062 
L 364.218182 280.378191 
L 363.681051 280.704 
L 360.610909 282.555118 
L 359.219275 283.392 
L 357.003636 284.716485 
L 354.716714 286.08 
L 353.396364 286.862568 
L 350.173046 288.768 
L 349.789091 288.993637 
L 346.181818 291.105173 
L 345.580367 291.456 
L 342.574545 293.198972 
L 340.940439 294.144 
L 338.967273 295.278428 
L 336.257805 296.832 
L 335.36 297.343792 
L 331.752727 299.393601 
L 331.529246 299.52 
L 328.145455 301.422673 
L 326.744973 302.208 
L 324.538182 303.438292 
L 321.916291 304.896 
L 320.930909 305.44069 
L 317.323636 307.428008 
L 317.039095 307.584 
" style="fill:none;stroke:#22a884;stroke-width:1.5;"/>
   </g>
   <g id="LineCollection_5">
    <path clip-path="url(#pf41a14bb3f)" d="M 414.72 275.344756 
L 411.112727 277.662595 
L 410.561443 278.016 
L 407.505455 279.964307 
L 406.342583 280.704 
L 403.898182 282.25037 
L 402.089457 283.392 
L 400.290909 284.52104 
L 397.801832 286.08 
L 396.683636 286.776565 
L 393.47947 288.768 
L 393.076364 289.01719 
L 389.469091 291.240466 
L 389.118292 291.456 
L 385.861818 293.446034 
L 384.717018 294.144 
L 382.254545 295.63729 
L 380.279848 296.832 
L 378.647273 297.814463 
L 375.806532 299.52 
L 375.04 299.977776 
L 371.432727 302.126446 
L 371.295279 302.208 
L 367.825455 304.255869 
L 366.738268 304.896 
L 364.218182 306.371985 
L 362.143872 307.584 
" style="fill:none;stroke:#7ad151;stroke-width:1.5;"/>
   </g>
   <g id="LineCollection_6">
    <path clip-path="url(#pf41a14bb3f)" d="M 414.72 299.511605 
L 414.706526 299.52 
L 411.112727 301.74811 
L 410.369392 302.208 
L 407.505455 303.971149 
L 406.00002 304.896 
L 403.898182 306.18092 
L 401.598206 307.584 
" style="fill:none;stroke:#fde725;stroke-width:1.5;"/>
   </g>
   <g id="patch_3">
    <path d="M 57.6 307.584 
L 57.6 41.472 
" style="fill:none;stroke:#000000;stroke-linecap:square;stroke-linejoin:miter;stroke-width:0.8;"/>
   </g>
   <g id="patch_4">
    <path d="M 414.72 307.584 
L 414.72 41.472 
" style="fill:none;stroke:#000000;stroke-linecap:square;stroke-linejoin:miter;stroke-width:0.8;"/>
   </g>
   <g id="patch_5">
    <path d="M 57.6 307.584 
L 414.72 307.584 
" style="fill:none;stroke:#000000;stroke-linecap:square;stroke-linejoin:miter;stroke-width:0.8;"/>
   </g>
   <g id="patch_6">
    <path d="M 57.6 41.472 
L 414.72 41.472 
" style="fill:none;stroke:#000000;stroke-linecap:square;stroke-linejoin:miter;stroke-width:0.8;"/>
   </g>
  </g>
 </g>
 <defs>
  <clipPath id="pf41a14bb3f">
   <rect height="266.112" width="357.12" x="57.6" y="41.472"/>
  </clipPath>
 </defs>
</svg>
