<?xml version="1.0" encoding="utf-8" standalone="no"?>
<!DOCTYPE svg PUBLIC "-//W3C//DTD SVG 1.1//EN"
  "http://www.w3.org/Graphics/SVG/1.1/DTD/svg11.dtd">
<!-- Created with matplotlib (http://matplotlib.org/) -->
<svg height="345pt" version="1.1" viewBox="0 0 460 345" width="460pt" xmlns="http://www.w3.org/2000/svg" xmlns:xlink="http://www.w3.org/1999/xlink">
 <defs>
  <style type="text/css">
*{stroke-linecap:butt;stroke-linejoin:round;}
  </style>
 </defs>
 <g id="figure_1">
  <g id="patch_1">
   <path d="M 0 345.6 
L 460.8 345.6 
L 460.8 0 
L 0 0 
z
" style="fill:none;opacity:0;"/>
  </g>
  <g id="axes_1">
   <g id="patch_2">
    <path d="M 57.6 307.584 
L 414.72 307.584 
L 414.72 41.472 
L 57.6 41.472 
z
" style="fill:#ffffff;"/>
   </g>
   <g id="PathCollection_1">
    <defs>
     <path d="M 0 0.866025 
C 0.229673 0.866025 0.449969 0.774776 0.612372 0.612372 
C 0.774776 0.449969 0.866025 0.229673 0.866025 0 
C 0.866025 -0.229673 0.774776 -0.449969 0.612372 -0.612372 
C 0.449969 -0.774776 0.229673 -0.866025 0 -0.866025 
C -0.229673 -0.866025 -0.449969 -0.774776 -0.612372 -0.612372 
C -0.774776 -0.449969 -0.866025 -0.229673 -0.866025 0 
C -0.866025 0.229673 -0.774776 0.449969 -0.612372 0.612372 
C -0.449969 0.774776 -0.229673 0.866025 0 0.866025 
z
" id="m71e93d3ab8" style="stroke:#1f77b4;stroke-opacity:0.8;"/>
    </defs>
    <g clip-path="url(#pbbf0d3e4eb)">
     <use style="fill:#1f77b4;fill-opacity:0.8;stroke:#1f77b4;stroke-opacity:0.8;" x="70.578805" xlink:href="#m71e93d3ab8" y="133.021107"/>
     <use style="fill:#1f77b4;fill-opacity:0.8;stroke:#1f77b4;stroke-opacity:0.8;" x="149.851211" xlink:href="#m71e93d3ab8" y="190.635672"/>
     <use style="fill:#1f77b4;fill-opacity:0.8;stroke:#1f77b4;stroke-opacity:0.8;" x="184.751841" xlink:href="#m71e93d3ab8" y="165.925171"/>
     <use style="fill:#1f77b4;fill-opacity:0.8;stroke:#1f77b4;stroke-opacity:0.8;" x="192.073407" xlink:href="#m71e93d3ab8" y="169.232321"/>
     <use style="fill:#1f77b4;fill-opacity:0.8;stroke:#1f77b4;stroke-opacity:0.8;" x="190.033552" xlink:href="#m71e93d3ab8" y="163.324411"/>
     <use style="fill:#1f77b4;fill-opacity:0.8;stroke:#1f77b4;stroke-opacity:0.8;" x="196.767819" xlink:href="#m71e93d3ab8" y="164.405448"/>
     <use style="fill:#1f77b4;fill-opacity:0.8;stroke:#1f77b4;stroke-opacity:0.8;" x="195.897937" xlink:href="#m71e93d3ab8" y="160.18951"/>
     <use style="fill:#1f77b4;fill-opacity:0.8;stroke:#1f77b4;stroke-opacity:0.8;" x="200.854035" xlink:href="#m71e93d3ab8" y="160.752719"/>
     <use style="fill:#1f77b4;fill-opacity:0.8;stroke:#1f77b4;stroke-opacity:0.8;" x="200.317826" xlink:href="#m71e93d3ab8" y="157.817652"/>
     <use style="fill:#1f77b4;fill-opacity:0.8;stroke:#1f77b4;stroke-opacity:0.8;" x="203.75751" xlink:href="#m71e93d3ab8" y="158.184198"/>
     <use style="fill:#1f77b4;fill-opacity:0.8;stroke:#1f77b4;stroke-opacity:0.8;" x="203.40717" xlink:href="#m71e93d3ab8" y="156.161926"/>
     <use style="fill:#1f77b4;fill-opacity:0.8;stroke:#1f77b4;stroke-opacity:0.8;" x="205.776341" xlink:href="#m71e93d3ab8" y="156.415785"/>
     <use style="fill:#1f77b4;fill-opacity:0.8;stroke:#1f77b4;stroke-opacity:0.8;" x="205.537562" xlink:href="#m71e93d3ab8" y="155.025368"/>
     <use style="fill:#1f77b4;fill-opacity:0.8;stroke:#1f77b4;stroke-opacity:0.8;" x="207.166839" xlink:href="#m71e93d3ab8" y="155.198965"/>
     <use style="fill:#1f77b4;fill-opacity:0.8;stroke:#1f77b4;stroke-opacity:0.8;" x="207.003267" xlink:href="#m71e93d3ab8" y="154.243395"/>
     <use style="fill:#1f77b4;fill-opacity:0.8;stroke:#1f77b4;stroke-opacity:0.8;" x="208.123129" xlink:href="#m71e93d3ab8" y="154.362393"/>
     <use style="fill:#1f77b4;fill-opacity:0.8;stroke:#1f77b4;stroke-opacity:0.8;" x="208.010949" xlink:href="#m71e93d3ab8" y="153.705736"/>
     <use style="fill:#1f77b4;fill-opacity:0.8;stroke:#1f77b4;stroke-opacity:0.8;" x="208.780583" xlink:href="#m71e93d3ab8" y="153.787351"/>
     <use style="fill:#1f77b4;fill-opacity:0.8;stroke:#1f77b4;stroke-opacity:0.8;" x="208.703629" xlink:href="#m71e93d3ab8" y="153.336113"/>
     <use style="fill:#1f77b4;fill-opacity:0.8;stroke:#1f77b4;stroke-opacity:0.8;" x="209.232551" xlink:href="#m71e93d3ab8" y="153.392096"/>
     <use style="fill:#1f77b4;fill-opacity:0.8;stroke:#1f77b4;stroke-opacity:0.8;" x="209.179759" xlink:href="#m71e93d3ab8" y="153.082019"/>
     <use style="fill:#1f77b4;fill-opacity:0.8;stroke:#1f77b4;stroke-opacity:0.8;" x="209.543253" xlink:href="#m71e93d3ab8" y="153.12042"/>
     <use style="fill:#1f77b4;fill-opacity:0.8;stroke:#1f77b4;stroke-opacity:0.8;" x="209.507036" xlink:href="#m71e93d3ab8" y="152.907344"/>
     <use style="fill:#1f77b4;fill-opacity:0.8;stroke:#1f77b4;stroke-opacity:0.8;" x="209.756842" xlink:href="#m71e93d3ab8" y="152.933686"/>
     <use style="fill:#1f77b4;fill-opacity:0.8;stroke:#1f77b4;stroke-opacity:0.8;" x="209.731996" xlink:href="#m71e93d3ab8" y="152.787266"/>
     <use style="fill:#1f77b4;fill-opacity:0.8;stroke:#1f77b4;stroke-opacity:0.8;" x="209.903671" xlink:href="#m71e93d3ab8" y="152.805335"/>
     <use style="fill:#1f77b4;fill-opacity:0.8;stroke:#1f77b4;stroke-opacity:0.8;" x="209.886626" xlink:href="#m71e93d3ab8" y="152.70472"/>
     <use style="fill:#1f77b4;fill-opacity:0.8;stroke:#1f77b4;stroke-opacity:0.8;" x="210.004978" xlink:href="#m71e93d3ab8" y="152.717153"/>
     <use style="fill:#1f77b4;fill-opacity:0.8;stroke:#1f77b4;stroke-opacity:0.8;" x="209.993035" xlink:href="#m71e93d3ab8" y="152.648073"/>
     <use style="fill:#1f77b4;fill-opacity:0.8;stroke:#1f77b4;stroke-opacity:0.8;" x="210.074537" xlink:href="#m71e93d3ab8" y="152.656412"/>
     <use style="fill:#1f77b4;fill-opacity:0.8;stroke:#1f77b4;stroke-opacity:0.8;" x="210.066217" xlink:href="#m71e93d3ab8" y="152.608873"/>
     <use style="fill:#1f77b4;fill-opacity:0.8;stroke:#1f77b4;stroke-opacity:0.8;" x="210.121982" xlink:href="#m71e93d3ab8" y="152.614661"/>
     <use style="fill:#1f77b4;fill-opacity:0.8;stroke:#1f77b4;stroke-opacity:0.8;" x="210.116392" xlink:href="#m71e93d3ab8" y="152.581989"/>
     <use style="fill:#1f77b4;fill-opacity:0.8;stroke:#1f77b4;stroke-opacity:0.8;" x="210.154682" xlink:href="#m71e93d3ab8" y="152.586056"/>
     <use style="fill:#1f77b4;fill-opacity:0.8;stroke:#1f77b4;stroke-opacity:0.8;" x="210.150847" xlink:href="#m71e93d3ab8" y="152.563605"/>
     <use style="fill:#1f77b4;fill-opacity:0.8;stroke:#1f77b4;stroke-opacity:0.8;" x="210.177162" xlink:href="#m71e93d3ab8" y="152.566395"/>
     <use style="fill:#1f77b4;fill-opacity:0.8;stroke:#1f77b4;stroke-opacity:0.8;" x="210.174531" xlink:href="#m71e93d3ab8" y="152.550967"/>
     <use style="fill:#1f77b4;fill-opacity:0.8;stroke:#1f77b4;stroke-opacity:0.8;" x="210.192615" xlink:href="#m71e93d3ab8" y="152.552881"/>
     <use style="fill:#1f77b4;fill-opacity:0.8;stroke:#1f77b4;stroke-opacity:0.8;" x="210.19081" xlink:href="#m71e93d3ab8" y="152.542279"/>
     <use style="fill:#1f77b4;fill-opacity:0.8;stroke:#1f77b4;stroke-opacity:0.8;" x="210.203238" xlink:href="#m71e93d3ab8" y="152.543592"/>
     <use style="fill:#1f77b4;fill-opacity:0.8;stroke:#1f77b4;stroke-opacity:0.8;" x="210.202" xlink:href="#m71e93d3ab8" y="152.536307"/>
     <use style="fill:#1f77b4;fill-opacity:0.8;stroke:#1f77b4;stroke-opacity:0.8;" x="210.210541" xlink:href="#m71e93d3ab8" y="152.537207"/>
     <use style="fill:#1f77b4;fill-opacity:0.8;stroke:#1f77b4;stroke-opacity:0.8;" x="210.209692" xlink:href="#m71e93d3ab8" y="152.532201"/>
     <use style="fill:#1f77b4;fill-opacity:0.8;stroke:#1f77b4;stroke-opacity:0.8;" x="210.215561" xlink:href="#m71e93d3ab8" y="152.532819"/>
     <use style="fill:#1f77b4;fill-opacity:0.8;stroke:#1f77b4;stroke-opacity:0.8;" x="210.214979" xlink:href="#m71e93d3ab8" y="152.529379"/>
     <use style="fill:#1f77b4;fill-opacity:0.8;stroke:#1f77b4;stroke-opacity:0.8;" x="210.219025" xlink:href="#m71e93d3ab8" y="152.529804"/>
     <use style="fill:#1f77b4;fill-opacity:0.8;stroke:#1f77b4;stroke-opacity:0.8;" x="210.218617" xlink:href="#m71e93d3ab8" y="152.527442"/>
     <use style="fill:#1f77b4;fill-opacity:0.8;stroke:#1f77b4;stroke-opacity:0.8;" x="210.221404" xlink:href="#m71e93d3ab8" y="152.527727"/>
     <use style="fill:#1f77b4;fill-opacity:0.8;stroke:#1f77b4;stroke-opacity:0.8;" x="210.221119" xlink:href="#m71e93d3ab8" y="152.526101"/>
     <use style="fill:#1f77b4;fill-opacity:0.8;stroke:#1f77b4;stroke-opacity:0.8;" x="210.223026" xlink:href="#m71e93d3ab8" y="152.526299"/>
     <use style="fill:#1f77b4;fill-opacity:0.8;stroke:#1f77b4;stroke-opacity:0.8;" x="210.222835" xlink:href="#m71e93d3ab8" y="152.525182"/>
     <use style="fill:#1f77b4;fill-opacity:0.8;stroke:#1f77b4;stroke-opacity:0.8;" x="210.224144" xlink:href="#m71e93d3ab8" y="152.525321"/>
     <use style="fill:#1f77b4;fill-opacity:0.8;stroke:#1f77b4;stroke-opacity:0.8;" x="210.224013" xlink:href="#m71e93d3ab8" y="152.524554"/>
     <use style="fill:#1f77b4;fill-opacity:0.8;stroke:#1f77b4;stroke-opacity:0.8;" x="210.224912" xlink:href="#m71e93d3ab8" y="152.524649"/>
     <use style="fill:#1f77b4;fill-opacity:0.8;stroke:#1f77b4;stroke-opacity:0.8;" x="210.224822" xlink:href="#m71e93d3ab8" y="152.524122"/>
     <use style="fill:#1f77b4;fill-opacity:0.8;stroke:#1f77b4;stroke-opacity:0.8;" x="210.225441" xlink:href="#m71e93d3ab8" y="152.524187"/>
     <use style="fill:#1f77b4;fill-opacity:0.8;stroke:#1f77b4;stroke-opacity:0.8;" x="210.225379" xlink:href="#m71e93d3ab8" y="152.523825"/>
     <use style="fill:#1f77b4;fill-opacity:0.8;stroke:#1f77b4;stroke-opacity:0.8;" x="210.225804" xlink:href="#m71e93d3ab8" y="152.523869"/>
     <use style="fill:#1f77b4;fill-opacity:0.8;stroke:#1f77b4;stroke-opacity:0.8;" x="210.225762" xlink:href="#m71e93d3ab8" y="152.52362"/>
     <use style="fill:#1f77b4;fill-opacity:0.8;stroke:#1f77b4;stroke-opacity:0.8;" x="210.226054" xlink:href="#m71e93d3ab8" y="152.523651"/>
     <use style="fill:#1f77b4;fill-opacity:0.8;stroke:#1f77b4;stroke-opacity:0.8;" x="210.226025" xlink:href="#m71e93d3ab8" y="152.52348"/>
     <use style="fill:#1f77b4;fill-opacity:0.8;stroke:#1f77b4;stroke-opacity:0.8;" x="210.226225" xlink:href="#m71e93d3ab8" y="152.523501"/>
     <use style="fill:#1f77b4;fill-opacity:0.8;stroke:#1f77b4;stroke-opacity:0.8;" x="210.226205" xlink:href="#m71e93d3ab8" y="152.523383"/>
     <use style="fill:#1f77b4;fill-opacity:0.8;stroke:#1f77b4;stroke-opacity:0.8;" x="210.226344" xlink:href="#m71e93d3ab8" y="152.523398"/>
     <use style="fill:#1f77b4;fill-opacity:0.8;stroke:#1f77b4;stroke-opacity:0.8;" x="210.22633" xlink:href="#m71e93d3ab8" y="152.523317"/>
     <use style="fill:#1f77b4;fill-opacity:0.8;stroke:#1f77b4;stroke-opacity:0.8;" x="210.226425" xlink:href="#m71e93d3ab8" y="152.523327"/>
     <use style="fill:#1f77b4;fill-opacity:0.8;stroke:#1f77b4;stroke-opacity:0.8;" x="210.226415" xlink:href="#m71e93d3ab8" y="152.523271"/>
     <use style="fill:#1f77b4;fill-opacity:0.8;stroke:#1f77b4;stroke-opacity:0.8;" x="210.226481" xlink:href="#m71e93d3ab8" y="152.523278"/>
     <use style="fill:#1f77b4;fill-opacity:0.8;stroke:#1f77b4;stroke-opacity:0.8;" x="210.226474" xlink:href="#m71e93d3ab8" y="152.52324"/>
     <use style="fill:#1f77b4;fill-opacity:0.8;stroke:#1f77b4;stroke-opacity:0.8;" x="210.226519" xlink:href="#m71e93d3ab8" y="152.523245"/>
     <use style="fill:#1f77b4;fill-opacity:0.8;stroke:#1f77b4;stroke-opacity:0.8;" x="210.226514" xlink:href="#m71e93d3ab8" y="152.523219"/>
     <use style="fill:#1f77b4;fill-opacity:0.8;stroke:#1f77b4;stroke-opacity:0.8;" x="210.226545" xlink:href="#m71e93d3ab8" y="152.523222"/>
     <use style="fill:#1f77b4;fill-opacity:0.8;stroke:#1f77b4;stroke-opacity:0.8;" x="210.226542" xlink:href="#m71e93d3ab8" y="152.523204"/>
     <use style="fill:#1f77b4;fill-opacity:0.8;stroke:#1f77b4;stroke-opacity:0.8;" x="210.226563" xlink:href="#m71e93d3ab8" y="152.523206"/>
     <use style="fill:#1f77b4;fill-opacity:0.8;stroke:#1f77b4;stroke-opacity:0.8;" x="210.226561" xlink:href="#m71e93d3ab8" y="152.523194"/>
     <use style="fill:#1f77b4;fill-opacity:0.8;stroke:#1f77b4;stroke-opacity:0.8;" x="210.226576" xlink:href="#m71e93d3ab8" y="152.523195"/>
     <use style="fill:#1f77b4;fill-opacity:0.8;stroke:#1f77b4;stroke-opacity:0.8;" x="210.226574" xlink:href="#m71e93d3ab8" y="152.523187"/>
     <use style="fill:#1f77b4;fill-opacity:0.8;stroke:#1f77b4;stroke-opacity:0.8;" x="210.226584" xlink:href="#m71e93d3ab8" y="152.523187"/>
    </g>
   </g>
   <g id="matplotlib.axis_1">
    <g id="xtick_1">
     <g id="line2d_1">
      <defs>
       <path d="M 0 0 
L 0 3.5 
" id="m9ccd1693e0" style="stroke:#000000;stroke-width:0.8;"/>
      </defs>
      <g>
       <use style="stroke:#000000;stroke-width:0.8;" x="57.6" xlink:href="#m9ccd1693e0" y="307.584"/>
      </g>
     </g>
     <g id="text_1">
      <!-- −2.0 -->
      <defs>
       <path d="M 10.59375 35.5 
L 73.1875 35.5 
L 73.1875 27.203125 
L 10.59375 27.203125 
z
" id="DejaVuSans-2212"/>
       <path d="M 19.1875 8.296875 
L 53.609375 8.296875 
L 53.609375 0 
L 7.328125 0 
L 7.328125 8.296875 
Q 12.9375 14.109375 22.625 23.890625 
Q 32.328125 33.6875 34.8125 36.53125 
Q 39.546875 41.84375 41.421875 45.53125 
Q 43.3125 49.21875 43.3125 52.78125 
Q 43.3125 58.59375 39.234375 62.25 
Q 35.15625 65.921875 28.609375 65.921875 
Q 23.96875 65.921875 18.8125 64.3125 
Q 13.671875 62.703125 7.8125 59.421875 
L 7.8125 69.390625 
Q 13.765625 71.78125 18.9375 73 
Q 24.125 74.21875 28.421875 74.21875 
Q 39.75 74.21875 46.484375 68.546875 
Q 53.21875 62.890625 53.21875 53.421875 
Q 53.21875 48.921875 51.53125 44.890625 
Q 49.859375 40.875 45.40625 35.40625 
Q 44.1875 33.984375 37.640625 27.21875 
Q 31.109375 20.453125 19.1875 8.296875 
z
" id="DejaVuSans-32"/>
       <path d="M 10.6875 12.40625 
L 21 12.40625 
L 21 0 
L 10.6875 0 
z
" id="DejaVuSans-2e"/>
       <path d="M 31.78125 66.40625 
Q 24.171875 66.40625 20.328125 58.90625 
Q 16.5 51.421875 16.5 36.375 
Q 16.5 21.390625 20.328125 13.890625 
Q 24.171875 6.390625 31.78125 6.390625 
Q 39.453125 6.390625 43.28125 13.890625 
Q 47.125 21.390625 47.125 36.375 
Q 47.125 51.421875 43.28125 58.90625 
Q 39.453125 66.40625 31.78125 66.40625 
z
M 31.78125 74.21875 
Q 44.046875 74.21875 50.515625 64.515625 
Q 56.984375 54.828125 56.984375 36.375 
Q 56.984375 17.96875 50.515625 8.265625 
Q 44.046875 -1.421875 31.78125 -1.421875 
Q 19.53125 -1.421875 13.0625 8.265625 
Q 6.59375 17.96875 6.59375 36.375 
Q 6.59375 54.828125 13.0625 64.515625 
Q 19.53125 74.21875 31.78125 74.21875 
z
" id="DejaVuSans-30"/>
      </defs>
      <g transform="translate(45.458594 322.182437)scale(0.1 -0.1)">
       <use xlink:href="#DejaVuSans-2212"/>
       <use x="83.789062" xlink:href="#DejaVuSans-32"/>
       <use x="147.412109" xlink:href="#DejaVuSans-2e"/>
       <use x="179.199219" xlink:href="#DejaVuSans-30"/>
      </g>
     </g>
    </g>
    <g id="xtick_2">
     <g id="line2d_2">
      <g>
       <use style="stroke:#000000;stroke-width:0.8;" x="102.24" xlink:href="#m9ccd1693e0" y="307.584"/>
      </g>
     </g>
     <g id="text_2">
      <!-- −1.5 -->
      <defs>
       <path d="M 12.40625 8.296875 
L 28.515625 8.296875 
L 28.515625 63.921875 
L 10.984375 60.40625 
L 10.984375 69.390625 
L 28.421875 72.90625 
L 38.28125 72.90625 
L 38.28125 8.296875 
L 54.390625 8.296875 
L 54.390625 0 
L 12.40625 0 
z
" id="DejaVuSans-31"/>
       <path d="M 10.796875 72.90625 
L 49.515625 72.90625 
L 49.515625 64.59375 
L 19.828125 64.59375 
L 19.828125 46.734375 
Q 21.96875 47.46875 24.109375 47.828125 
Q 26.265625 48.1875 28.421875 48.1875 
Q 40.625 48.1875 47.75 41.5 
Q 54.890625 34.8125 54.890625 23.390625 
Q 54.890625 11.625 47.5625 5.09375 
Q 40.234375 -1.421875 26.90625 -1.421875 
Q 22.3125 -1.421875 17.546875 -0.640625 
Q 12.796875 0.140625 7.71875 1.703125 
L 7.71875 11.625 
Q 12.109375 9.234375 16.796875 8.0625 
Q 21.484375 6.890625 26.703125 6.890625 
Q 35.15625 6.890625 40.078125 11.328125 
Q 45.015625 15.765625 45.015625 23.390625 
Q 45.015625 31 40.078125 35.4375 
Q 35.15625 39.890625 26.703125 39.890625 
Q 22.75 39.890625 18.8125 39.015625 
Q 14.890625 38.140625 10.796875 36.28125 
z
" id="DejaVuSans-35"/>
      </defs>
      <g transform="translate(90.098594 322.182437)scale(0.1 -0.1)">
       <use xlink:href="#DejaVuSans-2212"/>
       <use x="83.789062" xlink:href="#DejaVuSans-31"/>
       <use x="147.412109" xlink:href="#DejaVuSans-2e"/>
       <use x="179.199219" xlink:href="#DejaVuSans-35"/>
      </g>
     </g>
    </g>
    <g id="xtick_3">
     <g id="line2d_3">
      <g>
       <use style="stroke:#000000;stroke-width:0.8;" x="146.88" xlink:href="#m9ccd1693e0" y="307.584"/>
      </g>
     </g>
     <g id="text_3">
      <!-- −1.0 -->
      <g transform="translate(134.738594 322.182437)scale(0.1 -0.1)">
       <use xlink:href="#DejaVuSans-2212"/>
       <use x="83.789062" xlink:href="#DejaVuSans-31"/>
       <use x="147.412109" xlink:href="#DejaVuSans-2e"/>
       <use x="179.199219" xlink:href="#DejaVuSans-30"/>
      </g>
     </g>
    </g>
    <g id="xtick_4">
     <g id="line2d_4">
      <g>
       <use style="stroke:#000000;stroke-width:0.8;" x="191.52" xlink:href="#m9ccd1693e0" y="307.584"/>
      </g>
     </g>
     <g id="text_4">
      <!-- −0.5 -->
      <g transform="translate(179.378594 322.182437)scale(0.1 -0.1)">
       <use xlink:href="#DejaVuSans-2212"/>
       <use x="83.789062" xlink:href="#DejaVuSans-30"/>
       <use x="147.412109" xlink:href="#DejaVuSans-2e"/>
       <use x="179.199219" xlink:href="#DejaVuSans-35"/>
      </g>
     </g>
    </g>
    <g id="xtick_5">
     <g id="line2d_5">
      <g>
       <use style="stroke:#000000;stroke-width:0.8;" x="236.16" xlink:href="#m9ccd1693e0" y="307.584"/>
      </g>
     </g>
     <g id="text_5">
      <!-- 0.0 -->
      <g transform="translate(228.208438 322.182437)scale(0.1 -0.1)">
       <use xlink:href="#DejaVuSans-30"/>
       <use x="63.623047" xlink:href="#DejaVuSans-2e"/>
       <use x="95.410156" xlink:href="#DejaVuSans-30"/>
      </g>
     </g>
    </g>
    <g id="xtick_6">
     <g id="line2d_6">
      <g>
       <use style="stroke:#000000;stroke-width:0.8;" x="280.8" xlink:href="#m9ccd1693e0" y="307.584"/>
      </g>
     </g>
     <g id="text_6">
      <!-- 0.5 -->
      <g transform="translate(272.848437 322.182437)scale(0.1 -0.1)">
       <use xlink:href="#DejaVuSans-30"/>
       <use x="63.623047" xlink:href="#DejaVuSans-2e"/>
       <use x="95.410156" xlink:href="#DejaVuSans-35"/>
      </g>
     </g>
    </g>
    <g id="xtick_7">
     <g id="line2d_7">
      <g>
       <use style="stroke:#000000;stroke-width:0.8;" x="325.44" xlink:href="#m9ccd1693e0" y="307.584"/>
      </g>
     </g>
     <g id="text_7">
      <!-- 1.0 -->
      <g transform="translate(317.488437 322.182437)scale(0.1 -0.1)">
       <use xlink:href="#DejaVuSans-31"/>
       <use x="63.623047" xlink:href="#DejaVuSans-2e"/>
       <use x="95.410156" xlink:href="#DejaVuSans-30"/>
      </g>
     </g>
    </g>
    <g id="xtick_8">
     <g id="line2d_8">
      <g>
       <use style="stroke:#000000;stroke-width:0.8;" x="370.08" xlink:href="#m9ccd1693e0" y="307.584"/>
      </g>
     </g>
     <g id="text_8">
      <!-- 1.5 -->
      <g transform="translate(362.128438 322.182437)scale(0.1 -0.1)">
       <use xlink:href="#DejaVuSans-31"/>
       <use x="63.623047" xlink:href="#DejaVuSans-2e"/>
       <use x="95.410156" xlink:href="#DejaVuSans-35"/>
      </g>
     </g>
    </g>
    <g id="xtick_9">
     <g id="line2d_9">
      <g>
       <use style="stroke:#000000;stroke-width:0.8;" x="414.72" xlink:href="#m9ccd1693e0" y="307.584"/>
      </g>
     </g>
     <g id="text_9">
      <!-- 2.0 -->
      <g transform="translate(406.768438 322.182437)scale(0.1 -0.1)">
       <use xlink:href="#DejaVuSans-32"/>
       <use x="63.623047" xlink:href="#DejaVuSans-2e"/>
       <use x="95.410156" xlink:href="#DejaVuSans-30"/>
      </g>
     </g>
    </g>
    <g id="text_10">
     <!-- $\theta_1$ -->
     <defs>
      <path d="M 45.515625 34.671875 
L 14.453125 34.671875 
Q 12.359375 20.0625 14.5 13.875 
Q 17.1875 6.25 24.46875 6.25 
Q 31.78125 6.25 37.359375 13.921875 
Q 42.234375 20.65625 45.515625 34.671875 
z
M 47.015625 42.96875 
Q 48.34375 56.84375 46.625 61.71875 
Q 43.953125 69.4375 36.765625 69.4375 
Q 29.296875 69.4375 23.828125 61.8125 
Q 19.53125 55.671875 16.15625 42.96875 
z
M 38.1875 76.765625 
Q 49.90625 76.765625 54.59375 66.40625 
Q 59.28125 56.109375 55.71875 37.84375 
Q 52.203125 19.625 43.453125 9.28125 
Q 34.765625 -1.125 23.046875 -1.125 
Q 11.28125 -1.125 6.640625 9.28125 
Q 2 19.625 5.515625 37.84375 
Q 9.078125 56.109375 17.71875 66.40625 
Q 26.421875 76.765625 38.1875 76.765625 
z
" id="DejaVuSans-Oblique-3b8"/>
     </defs>
     <g transform="translate(230.71 335.860562)scale(0.1 -0.1)">
      <use transform="translate(0 0.234375)" xlink:href="#DejaVuSans-Oblique-3b8"/>
      <use transform="translate(61.181641 -16.171875)scale(0.7)" xlink:href="#DejaVuSans-31"/>
     </g>
    </g>
   </g>
   <g id="matplotlib.axis_2">
    <g id="ytick_1">
     <g id="line2d_10">
      <defs>
       <path d="M 0 0 
L -3.5 0 
" id="m64fc8ea1ae" style="stroke:#000000;stroke-width:0.8;"/>
      </defs>
      <g>
       <use style="stroke:#000000;stroke-width:0.8;" x="57.6" xlink:href="#m64fc8ea1ae" y="307.584"/>
      </g>
     </g>
     <g id="text_11">
      <!-- −2.0 -->
      <g transform="translate(26.317187 311.383219)scale(0.1 -0.1)">
       <use xlink:href="#DejaVuSans-2212"/>
       <use x="83.789062" xlink:href="#DejaVuSans-32"/>
       <use x="147.412109" xlink:href="#DejaVuSans-2e"/>
       <use x="179.199219" xlink:href="#DejaVuSans-30"/>
      </g>
     </g>
    </g>
    <g id="ytick_2">
     <g id="line2d_11">
      <g>
       <use style="stroke:#000000;stroke-width:0.8;" x="57.6" xlink:href="#m64fc8ea1ae" y="274.32"/>
      </g>
     </g>
     <g id="text_12">
      <!-- −1.5 -->
      <g transform="translate(26.317187 278.119219)scale(0.1 -0.1)">
       <use xlink:href="#DejaVuSans-2212"/>
       <use x="83.789062" xlink:href="#DejaVuSans-31"/>
       <use x="147.412109" xlink:href="#DejaVuSans-2e"/>
       <use x="179.199219" xlink:href="#DejaVuSans-35"/>
      </g>
     </g>
    </g>
    <g id="ytick_3">
     <g id="line2d_12">
      <g>
       <use style="stroke:#000000;stroke-width:0.8;" x="57.6" xlink:href="#m64fc8ea1ae" y="241.056"/>
      </g>
     </g>
     <g id="text_13">
      <!-- −1.0 -->
      <g transform="translate(26.317187 244.855219)scale(0.1 -0.1)">
       <use xlink:href="#DejaVuSans-2212"/>
       <use x="83.789062" xlink:href="#DejaVuSans-31"/>
       <use x="147.412109" xlink:href="#DejaVuSans-2e"/>
       <use x="179.199219" xlink:href="#DejaVuSans-30"/>
      </g>
     </g>
    </g>
    <g id="ytick_4">
     <g id="line2d_13">
      <g>
       <use style="stroke:#000000;stroke-width:0.8;" x="57.6" xlink:href="#m64fc8ea1ae" y="207.792"/>
      </g>
     </g>
     <g id="text_14">
      <!-- −0.5 -->
      <g transform="translate(26.317187 211.591219)scale(0.1 -0.1)">
       <use xlink:href="#DejaVuSans-2212"/>
       <use x="83.789062" xlink:href="#DejaVuSans-30"/>
       <use x="147.412109" xlink:href="#DejaVuSans-2e"/>
       <use x="179.199219" xlink:href="#DejaVuSans-35"/>
      </g>
     </g>
    </g>
    <g id="ytick_5">
     <g id="line2d_14">
      <g>
       <use style="stroke:#000000;stroke-width:0.8;" x="57.6" xlink:href="#m64fc8ea1ae" y="174.528"/>
      </g>
     </g>
     <g id="text_15">
      <!-- 0.0 -->
      <g transform="translate(34.696875 178.327219)scale(0.1 -0.1)">
       <use xlink:href="#DejaVuSans-30"/>
       <use x="63.623047" xlink:href="#DejaVuSans-2e"/>
       <use x="95.410156" xlink:href="#DejaVuSans-30"/>
      </g>
     </g>
    </g>
    <g id="ytick_6">
     <g id="line2d_15">
      <g>
       <use style="stroke:#000000;stroke-width:0.8;" x="57.6" xlink:href="#m64fc8ea1ae" y="141.264"/>
      </g>
     </g>
     <g id="text_16">
      <!-- 0.5 -->
      <g transform="translate(34.696875 145.063219)scale(0.1 -0.1)">
       <use xlink:href="#DejaVuSans-30"/>
       <use x="63.623047" xlink:href="#DejaVuSans-2e"/>
       <use x="95.410156" xlink:href="#DejaVuSans-35"/>
      </g>
     </g>
    </g>
    <g id="ytick_7">
     <g id="line2d_16">
      <g>
       <use style="stroke:#000000;stroke-width:0.8;" x="57.6" xlink:href="#m64fc8ea1ae" y="108"/>
      </g>
     </g>
     <g id="text_17">
      <!-- 1.0 -->
      <g transform="translate(34.696875 111.799219)scale(0.1 -0.1)">
       <use xlink:href="#DejaVuSans-31"/>
       <use x="63.623047" xlink:href="#DejaVuSans-2e"/>
       <use x="95.410156" xlink:href="#DejaVuSans-30"/>
      </g>
     </g>
    </g>
    <g id="ytick_8">
     <g id="line2d_17">
      <g>
       <use style="stroke:#000000;stroke-width:0.8;" x="57.6" xlink:href="#m64fc8ea1ae" y="74.736"/>
      </g>
     </g>
     <g id="text_18">
      <!-- 1.5 -->
      <g transform="translate(34.696875 78.535219)scale(0.1 -0.1)">
       <use xlink:href="#DejaVuSans-31"/>
       <use x="63.623047" xlink:href="#DejaVuSans-2e"/>
       <use x="95.410156" xlink:href="#DejaVuSans-35"/>
      </g>
     </g>
    </g>
    <g id="ytick_9">
     <g id="line2d_18">
      <g>
       <use style="stroke:#000000;stroke-width:0.8;" x="57.6" xlink:href="#m64fc8ea1ae" y="41.472"/>
      </g>
     </g>
     <g id="text_19">
      <!-- 2.0 -->
      <g transform="translate(34.696875 45.271219)scale(0.1 -0.1)">
       <use xlink:href="#DejaVuSans-32"/>
       <use x="63.623047" xlink:href="#DejaVuSans-2e"/>
       <use x="95.410156" xlink:href="#DejaVuSans-30"/>
      </g>
     </g>
    </g>
    <g id="text_20">
     <!-- $\theta_2$ -->
     <g transform="translate(20.2375 179.978)rotate(-90)scale(0.1 -0.1)">
      <use transform="translate(0 0.234375)" xlink:href="#DejaVuSans-Oblique-3b8"/>
      <use transform="translate(61.181641 -16.171875)scale(0.7)" xlink:href="#DejaVuSans-32"/>
     </g>
    </g>
   </g>
   <g id="LineCollection_1">
    <path clip-path="url(#pbbf0d3e4eb)" d="M 57.6 144.423706 
L 58.521377 143.616 
L 61.207273 141.297715 
L 61.63772 140.928 
L 64.814545 138.24077 
L 64.81546 138.24 
L 68.063742 135.552 
L 68.421818 135.259964 
L 71.373941 132.864 
L 72.029091 132.33984 
L 74.746947 130.176 
L 75.636364 129.477818 
L 78.183689 127.488 
L 79.243636 126.671486 
L 81.685113 124.8 
L 82.850909 123.918566 
L 85.252185 122.112 
L 86.458182 121.216899 
L 88.88589 119.424 
L 90.065455 118.564445 
L 92.587233 116.736 
L 93.672727 115.959267 
L 96.357238 114.048 
L 97.28 113.39953 
L 100.196951 111.36 
L 100.887273 110.883493 
L 104.10744 108.672 
L 104.494545 108.409503 
L 108.089793 105.984 
L 108.101818 105.975988 
L 111.709091 103.5899 
L 112.155779 103.296 
L 115.316364 101.242493 
L 116.298106 100.608 
L 118.923636 98.932102 
L 120.517699 97.92 
L 122.530909 96.657371 
L 124.815801 95.232 
L 126.138182 94.417012 
L 129.193684 92.544 
L 129.745455 92.209796 
L 133.352727 90.0396 
L 133.660369 89.856 
L 136.96 87.910338 
L 138.225969 87.168 
L 140.567273 85.811333 
L 142.877784 84.48 
L 144.174545 83.741524 
L 147.617278 81.792 
L 147.781818 81.699901 
L 151.389091 79.701426 
L 152.474538 79.104 
L 154.996364 77.732085 
L 157.429786 76.416 
L 158.603636 75.788412 
L 162.210909 73.873383 
L 162.487838 73.728 
L 165.818182 71.999732 
L 167.678885 71.04 
L 169.425455 70.149381 
L 172.971945 68.352 
L 173.032727 68.321542 
L 176.64 66.538166 
L 178.419932 65.664 
L 180.247273 64.776679 
L 183.854545 63.037149 
L 183.983194 62.976 
L 187.461818 61.341271 
L 189.718052 60.288 
L 191.069091 59.664363 
L 194.676364 58.016572 
L 195.599922 57.6 
L 198.283636 56.403119 
L 201.650397 54.912 
L 201.890909 54.806663 
L 205.498182 53.253074 
L 207.90737 52.224 
L 209.105455 51.717955 
L 212.712727 50.215496 
L 214.36489 49.536 
L 216.32 48.740916 
L 219.927273 47.291675 
L 221.049684 46.848 
L 223.534545 45.876812 
L 227.141818 44.482917 
L 227.993449 44.16 
L 230.749091 43.126925 
L 234.356364 41.790551 
L 235.234065 41.472 
" style="fill:none;stroke:#440154;stroke-width:1.5;"/>
    <path clip-path="url(#pbbf0d3e4eb)" d="M 414.72 94.435039 
L 412.978416 97.92 
L 410.024709 103.296 
L 406.763303 108.672 
L 403.206611 114.048 
L 399.36639 119.424 
L 395.253779 124.8 
L 390.879341 130.176 
L 385.861818 135.988914 
L 381.364834 140.928 
L 375.04 147.509516 
L 370.853248 151.68 
L 364.218182 157.990289 
L 357.003636 164.523007 
L 350.092133 170.496 
L 342.574545 176.697366 
L 335.36 182.407043 
L 328.145455 187.898723 
L 320.930909 193.189704 
L 313.716364 198.295504 
L 306.501818 203.230082 
L 299.094482 208.128 
L 288.465455 214.860349 
L 281.250909 219.261788 
L 270.429091 225.595542 
L 259.607273 231.64281 
L 252.392727 235.51733 
L 241.570909 241.098062 
L 230.749091 246.414281 
L 219.927273 251.471871 
L 208.543296 256.512 
L 195.620156 261.888 
L 187.461818 265.093794 
L 176.64 269.117352 
L 165.818182 272.884079 
L 154.996364 276.370092 
L 144.174545 279.581773 
L 136.96 281.562725 
L 126.138182 284.279526 
L 115.316364 286.677905 
L 104.308623 288.768 
L 97.28 289.890115 
L 90.065455 290.878507 
L 82.850909 291.677374 
L 75.636364 292.259913 
L 68.421818 292.620507 
L 61.207273 292.732144 
L 57.6 292.684939 
L 57.6 292.684939 
" style="fill:none;stroke:#440154;stroke-width:1.5;"/>
   </g>
   <g id="LineCollection_2">
    <path clip-path="url(#pbbf0d3e4eb)" d="M 414.72 173.377804 
L 411.801344 175.872 
L 411.112727 176.454276 
L 408.613899 178.56 
L 407.505455 179.484337 
L 405.383236 181.248 
L 403.898182 182.469424 
L 402.108908 183.936 
L 400.290909 185.410912 
L 398.79046 186.624 
L 396.683636 188.310124 
L 395.427434 189.312 
L 393.076364 191.168328 
L 392.019363 192 
L 389.469091 193.986742 
L 388.565773 194.688 
L 385.861818 196.766536 
L 385.066186 197.376 
L 382.254545 199.508837 
L 381.520115 200.064 
L 378.647273 202.214725 
L 377.927066 202.752 
L 375.04 204.885241 
L 374.28654 205.44 
L 371.432727 207.521386 
L 370.598029 208.128 
L 367.825455 210.124124 
L 366.861018 210.816 
L 364.218182 212.694383 
L 363.074986 213.504 
L 360.610909 215.233058 
L 359.239403 216.192 
L 357.003636 217.74101 
L 355.353732 218.88 
L 353.396364 220.219068 
L 351.417427 221.568 
L 349.789091 222.668035 
L 347.429937 224.256 
L 346.181818 225.088683 
L 343.3907 226.944 
L 342.574545 227.481756 
L 339.299146 229.632 
L 338.967273 229.847974 
L 335.36 232.185321 
L 335.151142 232.32 
L 331.752727 234.492306 
L 330.94293 235.008 
L 328.145455 236.774079 
L 326.679621 237.696 
L 324.538182 239.03129 
L 322.36059 240.384 
L 320.930909 241.264563 
L 317.985203 243.072 
L 317.323636 243.474505 
L 313.716364 245.659743 
L 313.549873 245.76 
L 310.109091 247.814449 
L 309.043885 248.448 
L 306.501818 249.94727 
L 304.478393 251.136 
L 302.894545 252.058752 
L 299.852697 253.824 
L 299.287273 254.149423 
L 295.68 256.214104 
L 295.156526 256.512 
L 292.072727 258.252407 
L 290.386928 259.2 
L 288.465455 260.271211 
L 285.55361 261.888 
L 284.858182 262.270994 
L 281.250909 264.245996 
L 280.644379 264.576 
L 277.643636 266.195345 
L 275.655111 267.264 
L 274.036364 268.126896 
L 270.598255 269.952 
L 270.429091 270.04108 
L 266.821818 271.925017 
L 265.446238 272.64 
L 263.214545 273.790632 
L 260.219943 275.328 
L 259.607273 275.640022 
L 256 277.463355 
L 254.899803 278.016 
L 252.392727 279.265264 
L 249.492634 280.704 
L 248.785455 281.052047 
L 245.178182 282.813416 
L 243.985342 283.392 
L 241.570909 284.553793 
L 238.384691 286.08 
L 237.963636 286.280094 
L 234.356364 287.978196 
L 232.668615 288.768 
L 230.749091 289.659154 
L 227.141818 291.324633 
L 226.854277 291.456 
L 223.534545 292.960625 
L 220.910997 294.144 
L 219.927273 294.584223 
L 216.32 296.183886 
L 214.846924 296.832 
L 212.712727 297.763574 
L 209.105455 299.328306 
L 208.658437 299.52 
L 205.498182 300.864476 
L 202.323956 302.208 
L 201.890909 302.389852 
L 198.283636 303.886302 
L 195.833683 304.896 
L 194.676364 305.369209 
L 191.069091 306.828417 
L 189.184558 307.584 
" style="fill:none;stroke:#414487;stroke-width:1.5;"/>
    <path clip-path="url(#pbbf0d3e4eb)" d="M 57.6 91.445593 
L 59.915619 89.856 
L 61.207273 88.977265 
L 63.876351 87.168 
L 64.814545 86.537679 
L 67.888416 84.48 
L 68.421818 84.126077 
L 71.952378 81.792 
L 72.029091 81.741727 
L 75.636364 79.389691 
L 76.076267 79.104 
L 79.243636 77.064973 
L 80.255505 76.416 
L 82.850909 74.765842 
L 84.489381 73.728 
L 86.458182 72.49164 
L 88.778513 71.04 
L 90.065455 70.241729 
L 93.12353 68.352 
L 93.672727 68.015493 
L 97.28 65.815299 
L 97.529452 65.664 
L 100.887273 63.644665 
L 102.003468 62.976 
L 104.494545 61.496242 
L 106.536469 60.288 
L 108.101818 59.369475 
L 111.129149 57.6 
L 111.709091 57.263825 
L 115.316364 55.183982 
L 115.790832 54.912 
L 118.923636 53.131047 
L 120.525593 52.224 
L 122.530909 51.0979 
L 125.323495 49.536 
L 126.138182 49.084059 
L 129.745455 47.093695 
L 130.193703 46.848 
L 133.352727 45.13062 
L 135.145526 44.16 
L 136.96 43.18561 
L 140.164299 41.472 
" style="fill:none;stroke:#414487;stroke-width:1.5;"/>
   </g>
   <g id="LineCollection_3">
    <path clip-path="url(#pbbf0d3e4eb)" d="M 414.72 215.068386 
L 413.197953 216.192 
L 411.112727 217.719527 
L 409.52399 218.88 
L 407.505455 220.34316 
L 405.810804 221.568 
L 403.898182 222.939912 
L 402.058054 224.256 
L 400.290909 225.510388 
L 398.265393 226.944 
L 396.683636 228.055176 
L 394.432472 229.632 
L 393.076364 230.574848 
L 390.558936 232.32 
L 389.469091 233.069957 
L 386.644427 235.008 
L 385.861818 235.54104 
L 382.688583 237.696 
L 382.254545 237.988621 
L 378.691037 240.384 
L 378.647273 240.413206 
L 375.04 242.810934 
L 374.64601 243.072 
L 371.432727 245.185836 
L 370.557298 245.76 
L 367.825455 247.538894 
L 366.425118 248.448 
L 364.218182 249.870571 
L 362.249074 251.136 
L 360.610909 252.181321 
L 358.028766 253.824 
L 357.003636 254.471585 
L 353.763787 256.512 
L 353.396364 256.741788 
L 349.789091 258.988941 
L 349.448907 259.2 
L 346.181818 261.212845 
L 345.082546 261.888 
L 342.574545 263.417701 
L 340.669536 264.576 
L 338.967273 265.603903 
L 336.20944 267.264 
L 335.36 267.771833 
L 331.752727 269.921377 
L 331.70106 269.952 
L 328.145455 272.044985 
L 327.131394 272.64 
L 324.538182 274.151255 
L 322.51248 275.328 
L 320.930909 276.240539 
L 317.843843 278.016 
L 317.323636 278.313178 
L 313.716364 280.364215 
L 313.116016 280.704 
L 310.109091 282.394415 
L 308.328734 283.392 
L 306.501818 284.408834 
L 303.489362 286.08 
L 302.894545 286.407786 
L 299.287273 288.385689 
L 298.586634 288.768 
L 295.68 290.343484 
L 293.62057 291.456 
L 292.072727 292.286628 
L 288.599857 294.144 
L 288.465455 294.21541 
L 284.858182 296.119253 
L 283.502602 296.832 
L 281.250909 298.008123 
L 278.346375 299.52 
L 277.643636 299.883401 
L 274.036364 301.738229 
L 273.117937 302.208 
L 270.429091 303.574323 
L 267.818874 304.896 
L 266.821818 305.397571 
L 263.214545 307.202462 
L 262.44737 307.584 
" style="fill:none;stroke:#2a788e;stroke-width:1.5;"/>
    <path clip-path="url(#pbbf0d3e4eb)" d="M 57.6 54.787433 
L 61.207273 52.528191 
L 61.694722 52.224 
L 64.814545 50.2907 
L 66.036209 49.536 
L 68.421818 48.072487 
L 70.42402 46.848 
L 72.029091 45.873154 
L 74.85859 44.16 
L 75.636364 43.692312 
L 79.243636 41.530514 
L 79.341783 41.472 
" style="fill:none;stroke:#2a788e;stroke-width:1.5;"/>
   </g>
   <g id="LineCollection_4">
    <path clip-path="url(#pbbf0d3e4eb)" d="M 414.72 247.403197 
L 413.189211 248.448 
L 411.112727 249.856287 
L 409.22098 251.136 
L 407.505455 252.289208 
L 405.216405 253.824 
L 403.898182 254.702337 
L 401.175204 256.512 
L 400.290909 257.096044 
L 397.097095 259.2 
L 396.683636 259.470689 
L 393.076364 261.82573 
L 392.980641 261.888 
L 389.469091 264.158236 
L 388.821203 264.576 
L 385.861818 266.47251 
L 384.623489 267.264 
L 382.254545 268.768885 
L 380.387196 269.952 
L 378.647273 271.047688 
L 376.112017 272.64 
L 375.04 273.309236 
L 371.797641 275.328 
L 371.432727 275.55384 
L 367.825455 277.778496 
L 367.438986 278.016 
L 364.218182 279.983446 
L 363.035408 280.704 
L 360.610909 282.172196 
L 358.591125 283.392 
L 357.003636 284.345035 
L 354.105805 286.08 
L 353.396364 286.502243 
L 349.789091 288.642374 
L 349.576425 288.768 
L 346.181818 290.761397 
L 344.995683 291.456 
L 342.574545 292.865484 
L 340.372274 294.144 
L 338.967273 294.954897 
L 335.705843 296.832 
L 335.36 297.029892 
L 331.752727 299.084845 
L 330.986113 299.52 
L 328.145455 301.123061 
L 326.217459 302.208 
L 324.538182 303.147507 
L 321.404021 304.896 
L 320.930909 305.158421 
L 317.323636 307.150237 
L 316.534992 307.584 
" style="fill:none;stroke:#22a884;stroke-width:1.5;"/>
   </g>
   <g id="LineCollection_5">
    <path clip-path="url(#pbbf0d3e4eb)" d="M 414.72 274.78139 
L 413.878195 275.328 
L 411.112727 277.113805 
L 409.712323 278.016 
L 407.505455 279.429956 
L 405.512279 280.704 
L 403.898182 281.73011 
L 401.277821 283.392 
L 400.290909 284.014527 
L 397.008707 286.08 
L 396.683636 286.283462 
L 393.076364 288.534234 
L 392.700568 288.768 
L 389.469091 290.767292 
L 388.353252 291.456 
L 385.861818 292.985475 
L 383.970099 294.144 
L 382.254545 295.189022 
L 379.55085 296.832 
L 378.647273 297.378165 
L 375.095242 299.52 
L 375.04 299.553134 
L 371.432727 301.708008 
L 370.593593 302.208 
L 367.825455 303.848636 
L 366.053959 304.896 
L 364.218182 305.97565 
L 361.47669 307.584 
" style="fill:none;stroke:#7ad151;stroke-width:1.5;"/>
   </g>
   <g id="LineCollection_6">
    <path clip-path="url(#pbbf0d3e4eb)" d="M 414.72 298.957639 
L 413.821713 299.52 
L 411.112727 301.207549 
L 409.503223 302.208 
L 407.505455 303.443687 
L 405.152332 304.896 
L 403.898182 305.666257 
L 400.768829 307.584 
" style="fill:none;stroke:#fde725;stroke-width:1.5;"/>
   </g>
   <g id="patch_3">
    <path d="M 57.6 307.584 
L 57.6 41.472 
" style="fill:none;stroke:#000000;stroke-linecap:square;stroke-linejoin:miter;stroke-width:0.8;"/>
   </g>
   <g id="patch_4">
    <path d="M 414.72 307.584 
L 414.72 41.472 
" style="fill:none;stroke:#000000;stroke-linecap:square;stroke-linejoin:miter;stroke-width:0.8;"/>
   </g>
   <g id="patch_5">
    <path d="M 57.6 307.584 
L 414.72 307.584 
" style="fill:none;stroke:#000000;stroke-linecap:square;stroke-linejoin:miter;stroke-width:0.8;"/>
   </g>
   <g id="patch_6">
    <path d="M 57.6 41.472 
L 414.72 41.472 
" style="fill:none;stroke:#000000;stroke-linecap:square;stroke-linejoin:miter;stroke-width:0.8;"/>
   </g>
  </g>
 </g>
 <defs>
  <clipPath id="pbbf0d3e4eb">
   <rect height="266.112" width="357.12" x="57.6" y="41.472"/>
  </clipPath>
 </defs>
</svg>
